<svg xmlns="http://www.w3.org/2000/svg" version="1.1" xmlns:xlink="http://www.w3.org/1999/xlink" xmlns:svgjs="http://svgjs.dev/svgjs" width="1560" height="560" preserveAspectRatio="none" viewBox="0 0 1560 560"><g mask="url(&quot;#SvgjsMask1058&quot;)" fill="none"><rect width="1560" height="560" x="0" y="0" fill="rgba(37, 78, 112, 1)"></rect><circle r="8.65" cx="984.3199999999999" cy="121.41000000000001" filter="url(#SvgjsFilter1059)" fill="rgba(134, 178, 215, 1)"></circle><circle r="8.46" cx="1172.3400000000001" cy="384.15" filter="url(#SvgjsFilter1059)" fill="rgba(70, 126, 172, 1)"></circle><circle r="9.12" cx="833.92" cy="177.61" filter="url(#SvgjsFilter1059)" fill="rgba(70, 126, 172, 1)"></circle><circle r="7.865" cx="341.02500000000003" cy="390.385" filter="url(#SvgjsFilter1059)" fill="rgba(134, 178, 215, 1)"></circle><circle r="6.485" cx="607.545" cy="211.495" filter="url(#SvgjsFilter1059)" fill="rgba(70, 126, 172, 1)"></circle><circle r="6.995" cx="198.435" cy="201.735" filter="url(#SvgjsFilter1059)" fill="rgba(134, 178, 215, 1)"></circle><circle r="8.965" cx="59.44499999999999" cy="399.265" filter="url(#SvgjsFilter1059)" fill="rgba(134, 178, 215, 1)"></circle><circle r="6.2" cx="739.97" cy="390.61" filter="url(#SvgjsFilter1059)" fill="rgba(70, 126, 172, 1)"></circle><circle r="6.595" cx="248.205" cy="446.935" filter="url(#SvgjsFilter1059)" fill="rgba(134, 178, 215, 1)"></circle><circle r="6.45" cx="770.34" cy="34.75" filter="url(#SvgjsFilter1059)" fill="rgba(70, 126, 172, 1)"></circle><circle r="9.2" cx="692.09" cy="117.24000000000001" filter="url(#SvgjsFilter1059)" fill="rgba(134, 178, 215, 1)"></circle><circle r="5.02" cx="918.38" cy="167.21" filter="url(#SvgjsFilter1059)" fill="rgba(134, 178, 215, 1)"></circle><circle r="4.75" cx="1549.97" cy="555.58" filter="url(#SvgjsFilter1059)" fill="rgba(134, 178, 215, 1)"></circle><circle r="7.205" cx="1550.725" cy="322.48499999999996" filter="url(#SvgjsFilter1059)" fill="rgba(134, 178, 215, 1)"></circle><circle r="8.425" cx="662.3349999999999" cy="433.095" filter="url(#SvgjsFilter1059)" fill="rgba(134, 178, 215, 1)"></circle><circle r="7.45" cx="1102.82" cy="307.53" filter="url(#SvgjsFilter1059)" fill="rgba(70, 126, 172, 1)"></circle><circle r="5.725" cx="731.655" cy="416.925" filter="url(#SvgjsFilter1059)" fill="rgba(70, 126, 172, 1)"></circle><circle r="6.445" cx="1435.475" cy="56.525" filter="url(#SvgjsFilter1059)" fill="rgba(70, 126, 172, 1)"></circle><circle r="9.19" cx="485.62" cy="301.73" filter="url(#SvgjsFilter1059)" fill="rgba(134, 178, 215, 1)"></circle><circle r="8.125" cx="1192.185" cy="367.455" filter="url(#SvgjsFilter1059)" fill="rgba(70, 126, 172, 1)"></circle><path d="M1117.4 195.2L1108.4 252 1066.7 281.8 1061.7 230.8 1098.5 186.6C1098.5 186.6 1098.8 186 1098.8 186 1099.3 184.7 1098.6 182.9 1097.7 181.7 1096.1 180.2 1093.6 180.6 1092.7 182.5L1060.7 221.3 1058.2 196.5 1072.1 179.2C1072.1 179.2 1072.4 178.6 1072.4 178.6 1073 177.4 1072.3 175.5 1071.3 174.3 1069.7 172.8 1067.2 173.2 1066.4 175.1L1056.6 186.7 1055 168.4C1054.9 166.9 1052.7 165.1 1051.1 165.1 1048.9 164.9 1047.8 167.4 1047.8 169L1049.5 187.2 1037.9 177.4C1036.3 175.9 1033.8 176.3 1033 178.2 1031.5 179.9 1031.9 182.3 1033.8 183.2L1051.1 197.1 1052.9 221.6 1014.2 189.5C1012.6 188 1010.1 188.4 1009.2 190.3 1007.8 191.9 1008.2 194.4 1010 195.2L1054.3 232 1059.3 283.1 1011.9 261.6 991.6 207.4C990.9 205.6 989 204.7 987.2 205.4 985.3 206.1 984.5 208 985.2 209.8L1003.1 257.6 980.4 247.3 972.8 227.1C972.1 225.2 970.2 224.4 968.4 225.1 966.5 225.7 965.7 227.6 966.4 229.5L971.5 243.2 953.8 235.2C952.2 233.7 950.1 235.1 949.3 237 948.4 238.8 949.1 240.7 951 241.5L967.4 249 953.6 254.2C951.8 254.9 950.9 256.7 951.6 258.6S954.2 261.3 956 260.6L976.2 253 999 263.3 951.2 281.2C949.4 281.9 948.5 283.8 949.2 285.7 949.9 287.5 951.8 288.4 953.7 287.7L1007.8 267.3 1054.5 288.5 1012.8 318.3 957.6 309.2C955.4 309 953.9 310.6 953 312.5 952.8 314.7 954.4 316.2 956.3 317L1006 325.1 985.7 339.5 963.8 335.7C961.7 335.5 960.2 337.1 959.3 339 959.1 341.1 960.7 342.6 962 343.2L976.9 345.4 962.1 356.2C960.9 357.2 959.8 359.7 961.4 361.2 963 362.7 964.9 363.6 966.4 362L981.2 351.2 979 366.1C978.7 368.3 980.3 369.8 981.6 370.4 983.2 370.3 985 369.6 985.6 368.4 985.6 368.4 985.9 367.8 985.9 367.8L989.7 345.9 1009.9 331.5 1001.9 381.1C1001.6 383.3 1003.3 384.8 1004.5 385.4 1006.1 385.3 1007.9 384.6 1008.5 383.3 1008.5 383.3 1008.8 382.7 1008.8 382.7L1017.8 325.9 1059.5 296.1 1064.5 347.1 1027.7 391.3C1026.2 392.9 1026.6 395.4 1028.5 396.2 1030.1 397.7 1032.6 397.3 1033.4 395.4L1065.5 356.7 1068 381.4 1054 398.7C1052.6 400.3 1053 402.8 1054.9 403.6 1056.5 405.1 1058.9 404.7 1059.8 402.8L1069.6 391.3 1071.2 409.5C1071.3 411.1 1073.5 412.8 1075.1 412.8 1076.6 412.7 1077.8 411.7 1078.4 410.5 1078.7 409.9 1079 409.2 1078.6 408.3L1077 390.1 1088.5 399.9C1090.1 401.4 1092.6 400.9 1093.5 399.1 1093.5 399.1 1093.8 398.4 1093.8 398.4 1094.3 397.2 1093.6 395.3 1092.7 394.1L1075.4 380.2 1072.9 355.5 1111.6 387.5C1113.3 389 1115.7 388.6 1116.6 386.7 1116.6 386.7 1116.9 386.1 1116.9 386.1 1117.4 384.8 1116.7 383 1115.8 381.8L1071.6 345 1066.5 294 1113.3 315.1 1133.6 369.3C1134.3 371.1 1136.2 372 1138 371.3 1139.9 370.6 1140.7 368.7 1140 366.9L1122.7 319.4 1145.5 329.8 1153 349.9C1153.7 351.8 1155.6 352.6 1157.5 352S1160.2 349.4 1159.5 347.5L1154.3 333.8 1170.7 341.2C1172.6 342.1 1174.4 341.4 1175.3 339.5 1176.2 337.6 1175.5 335.8 1173.6 334.9L1157.2 327.5 1170.9 322.3C1171.8 321.9 1172.8 321.6 1173.3 320.3S1173.6 318.1 1173.2 317.2C1172.5 315.4 1170.6 314.5 1168.8 315.2L1148.6 322.8 1125.9 312.5 1173.6 294.6C1174.5 294.2 1175.4 293.9 1176 292.6 1176.3 292 1176.2 290.4 1175.9 289.5 1175.2 287.7 1173.3 286.8 1171.5 287.5L1117.3 307.9 1070.6 286.7 1112.3 256.9 1169.1 265.9C1170.7 265.8 1172.5 265.1 1173.1 263.9 1173.1 263.9 1173.3 263.2 1173.3 263.2 1173.6 261.1 1172 259.6 1170.7 259L1121.1 250.9 1141.3 236.5 1163.2 240.3C1164.7 240.3 1166.6 239.6 1167.1 238.3 1167.1 238.3 1167.4 237.7 1167.4 237.7 1167.6 235.5 1166 234 1164.8 233.5L1149.8 231.2 1164.6 220.4C1164.9 219.8 1165.8 219.5 1166.1 218.8 1166.7 217.6 1166.6 216 1165.6 214.8 1164 213.3 1162.1 212.5 1160.6 214.1L1145.8 224.9 1148.1 209.9C1148.3 207.7 1146.7 206.2 1145.4 205.6 1143.2 205.4 1141.7 207 1141.2 208.3L1137.3 230.1 1117.1 244.6 1125.2 194.9C1125.4 192.7 1123.8 191.3 1122.5 190.7 1119.8 191.7 1117.6 193 1117.4 195.2Z" fill="rgba(134, 178, 215, 1)"></path><path d="M362.8 243.7L413.6 265.7 420.6 284.6 403.5 277.2C401.9 275.9 400.1 277 398.8 278.7 398.4 280.2 399.2 282.6 400.7 282.9L424.1 293.6 431.6 312 412 308.8 396.8 287.8C396.8 287.8 396.3 287.3 396.3 287.3 395.2 286.5 393.3 286.7 391.8 287.3 390.6 289 390.2 290.5 391.4 292.3L402.5 307.4 382.9 304.1 349.8 260C349.8 260 349.7 259 349.7 259 348.6 258.2 346.7 258.4 345.3 259 343.4 260.2 343.2 262.7 344.8 264L373.3 302.7 349.3 299.5 336.5 282.2C336.5 282.2 336.5 282.2 336 281.8 334.9 280.9 333.4 280.6 332 281.2 330.7 282.9 329.9 284.9 331.1 286.8L339.8 298.1 322.2 295.6C320.2 294.9 318.9 296.5 318.6 298 317.8 300.1 319 301.9 321.5 302.1L338.6 305.2 327.1 312.9C325.8 314.5 325.1 316.5 326.7 317.8 327.9 319.7 329.4 320 331.2 318.8L348.6 306 372.2 309.8 333 338.8C331.6 339.5 331.4 342 332.6 343.8 333.7 344.7 335.7 345.4 337.6 344.2L381.7 311.2 401.3 314.4 386.3 325.5C384.4 326.7 384.6 328.6 385.8 330.4 386.5 331.9 389 332.1 390.4 331.4L410.8 315.8 430.9 318.5 418.3 334.2 393 337C391 337.3 389.7 338.9 390 340.8 389.6 342.4 391.8 344.1 393.7 343.9L412.3 341.8 399.7 357.5 344.6 363.2C342.7 363.4 341.4 365 341.6 367 341.8 368.9 343.4 370.2 345.4 370L393.7 365.1 379 383.5 357.5 385.9C355.6 386.1 354.3 387.8 354.5 389.7 354.7 391.7 356.3 393 358.3 392.7L372.5 391.6 361.7 405.2C360.4 406.8 360.6 408.8 362.2 410.1 363.8 411.4 365.8 411.1 367.1 409.5L377.9 396 379.4 409.6C379.6 411.6 381.3 412.9 383.2 412.6S386.5 410.8 386.2 408.8L383.9 388.4 399.1 369.4 404.4 417.2C404.7 419.1 406.3 420.4 408.2 420.2 410.2 420 411.5 418.3 411.3 416.4L405.1 361.8 417.7 346.1 419.8 364.6C420 366.6 421.6 367.9 423.6 367.7 425.5 367.4 426.8 365.8 426.6 363.9L423.7 338.5 435.8 323.4 442.8 341.3 432.6 365.2C432.3 366.7 433.1 369.1 434.6 369.4 436.7 370.1 438.1 369.5 439.4 367.9L446.8 350.7 453.8 368.7 431.8 419.5C431.1 421.6 431.7 423 433.4 424.3 435.4 425 437.3 423.8 438.1 422.8L457.8 378.1 466.2 400.9 458 420C456.7 421.7 457.9 423.5 459.6 424.8 461.1 425.1 463.5 424.4 464.2 422.3L469.7 409.8 476.5 425.9C476.7 427.8 478.7 428.6 481.1 427.8 482.5 427.1 483.3 425.1 482.6 423.7L476.3 407.1 489.3 413.1C491.4 413.8 493.2 412.6 493.5 411.1 494.8 409.5 494.2 408.1 493.1 407.2 492.6 406.8 492.6 406.8 492 406.3L472.9 398.1 464.4 375.4 508.5 394.6C510.1 395.9 511.9 394.7 513.2 393.1 513.6 391.6 512.9 390.2 511.8 389.3 511.3 388.9 511.3 388.9 511.3 388.9L460.4 366 453.4 348 470.5 355.5C472.6 356.2 474 355.6 475.3 354 475.6 352.4 475.4 350.5 474.3 349.6 473.8 349.2 473.8 349.2 473.2 348.8L449.4 338.6 442.5 320.6 461.5 323.4 477.1 343.9C478.3 345.7 480.8 345.9 482.2 345.3 483.5 343.7 484.3 341.6 482.6 340.3L471.6 325.3 491.1 327.5 524.3 372.6C524.9 374 527.4 374.3 528.8 373.6 530.1 372 530.9 369.9 529.7 368.1L501.1 329.4 524.8 333.1 537 350C538.2 351.8 540.7 352 542 350.4 543.4 349.8 544.2 347.7 543 345.9L534.3 334.5 551.8 337C553.3 337.3 555.2 336.1 555.9 334.1 555.8 333.1 555.2 331.7 554.1 330.8 554.1 330.8 553.6 330.4 553 329.9L535.5 327.5 546.8 318.8C548.2 318.1 548.5 315.7 547.8 314.3 547.3 313.8 547.3 313.8 547.3 313.8 545.6 312.5 543.7 312.7 542.8 313.8L525.9 326.1 501.9 322.9 541.1 293.8C542.4 292.2 542.7 290.7 541.5 288.8 541.5 288.8 541 288.4 541 288.4 539.9 287.5 538.4 287.2 536.5 288.4L491.8 321 472.8 318.2 487.8 307.2C489.1 305.5 489.9 303.5 488.2 302.2 488.7 301.6 488.1 301.2 488.1 301.2 487 300.3 485.1 300.6 483.7 301.2L463.2 316.8 443.6 313.6 455.7 298.4 481.1 295.6C483 295.4 484.8 293.2 484.5 291.3 483.9 289.8 482.3 288.5 480.7 288.2L461.8 290.8 474.3 275.1 528.9 269C530.9 268.8 532.2 267.2 531.9 265.2 531.7 263.3 530.1 262 528.1 262.2L480.4 267.5 495.5 248.6 516 246.3C518 246.1 519.3 244.4 519 242.5S517.2 239.2 515.2 239.5L501.6 241 512.4 227.4C513.7 225.8 513.5 223.9 511.9 222.6 510.2 221.3 508.3 221.5 507 223.1L496.2 236.7 494.1 222.6C494 221.6 493.9 220.6 493.3 220.2 492.8 219.8 491.3 219.5 490.3 219.6 488.4 219.8 487.1 221.4 487.3 223.4L490.1 244.3 475 263.2 469.1 215C469 214.1 468.9 213.1 468.3 212.7 467.8 212.2 466.3 211.9 465.3 212 463.3 212.2 462 213.9 462.3 215.8L468.9 270.8 456.4 286.5 454.7 267.5C454.6 266.5 453.5 265.6 453 265.2 452.5 264.8 451.9 264.3 450.9 264.4 449 264.7 447.3 266.8 447.9 268.2L450.3 294.1 438.2 309.3 430.7 290.9 441.4 267.5C441.7 266 441.5 264 440.4 263.1 439.9 262.7 439.9 262.7 439.5 263.3 437.8 262 435.5 262.7 434.7 264.8L427.3 281.9 419.8 263.5 442.7 212.6C443 211.1 442.3 209.7 441.3 208.8 440.7 208.4 440.7 208.4 440.7 208.4 438.7 207.6 436.7 207.8 435.9 209.9L416.3 254.5 407.8 231.8 416 212.6C416.8 210.5 416.1 209.1 415 208.3 415 208.3 414.5 207.8 414.5 207.8 412.4 207.1 410.6 208.3 409.7 209.4L404.3 222.8 398 206.2C397.5 205.8 397 205.4 396.4 204.9 395.9 204.5 394.4 204.2 393.4 204.3 391.5 205.5 390.2 207.1 391.4 209L397.7 225.5 384.7 219.6C382.7 218.8 380.8 220 380 221.1 379.2 223.1 380.4 225 382 226.3L401.2 234.5 410.1 256.7 366 237.5C364 236.7 361.6 237.5 361.3 239 360.5 241 360.7 243 362.8 243.7Z" fill="rgba(134, 178, 215, 1)"></path><path d="M1478.3 358.5L1431.3 329.2 1427.2 309.4 1443 319.3C1444.4 320.9 1446.4 320 1447.9 318.6 1448.5 317.1 1448.1 314.6 1446.6 314.1L1425.1 300 1420.5 280.7 1439.4 286.8 1451.2 309.9C1451.2 309.9 1451.7 310.4 1451.7 310.4 1452.6 311.4 1454.6 311.5 1456.1 311 1457.6 309.6 1458.2 308.2 1457.3 306.2L1448.6 289.6 1467.5 295.8 1493.5 344.4C1493.5 344.4 1493.5 345.4 1493.5 345.4 1494.4 346.4 1496.4 346.5 1497.9 346 1499.9 345.1 1500.5 342.7 1499.1 341.2L1476.7 298.6 1500 305.4 1510 324.4C1510 324.4 1510 324.4 1510.5 325 1511.4 326 1512.9 326.5 1514.4 326.1 1515.9 324.7 1517 322.8 1516 320.8L1509.2 308.2 1526.2 313.3C1528.1 314.4 1529.6 313 1530.2 311.5 1531.2 309.6 1530.3 307.6 1527.9 307L1511.4 301.4 1523.9 295.6C1525.4 294.1 1526.5 292.2 1525.1 290.7 1524.2 288.7 1522.7 288.1 1520.7 289.1L1501.7 299.1 1478.9 291.8 1522 269C1523.5 268.6 1524.1 266.1 1523.2 264.1 1522.2 263.1 1520.3 262.1 1518.3 263L1469.7 289 1450.8 282.9 1467.4 274.2C1469.3 273.3 1469.4 271.3 1468.5 269.3 1468.1 267.8 1465.7 267.3 1464.2 267.7L1441.6 280 1422.2 274.4 1437 260.7 1462.4 261.7C1464.4 261.8 1465.9 260.4 1466 258.4 1466.6 257 1464.7 254.9 1462.7 254.9L1444.1 254.1 1458.9 240.5 1514.2 243.2C1516.2 243.2 1517.7 241.8 1517.8 239.9 1517.8 237.9 1516.4 236.4 1514.5 236.3L1466 233.9 1483.3 217.9 1504.9 218.8C1506.8 218.8 1508.4 217.4 1508.4 215.5 1508.5 213.5 1507.1 212 1505.1 211.9L1490.9 210.8 1503.7 199.1C1505.2 197.7 1505.3 195.7 1503.9 194.2 1502.5 192.7 1500.5 192.6 1499 194L1486.2 205.8 1486.8 192C1486.9 190.1 1485.4 188.5 1483.5 188.5S1480 189.8 1479.9 191.8L1479.1 212.3 1461.3 228.8 1463.2 180.8C1463.3 178.8 1461.9 177.3 1459.9 177.2 1457.9 177.2 1456.4 178.6 1456.3 180.5L1454.2 235.4 1439.4 249 1440.1 230.4C1440.2 228.5 1438.8 226.9 1436.8 226.9 1434.9 226.8 1433.3 228.2 1433.3 230.2L1432.3 255.6 1418 268.8 1413.8 250 1427.5 228C1428 226.5 1427.6 224 1426.2 223.5 1424.3 222.4 1422.8 222.9 1421.2 224.3L1411.3 240.1 1407.1 221.3 1436.5 174.4C1437.5 172.4 1437.1 170.9 1435.7 169.4 1433.7 168.4 1431.7 169.3 1430.7 170.2L1404.6 211.4 1399.6 187.6 1410.6 169.9C1412.2 168.5 1411.3 166.5 1409.8 165 1408.4 164.4 1405.9 164.8 1404.9 166.7L1397.5 178.2 1393.3 161.4C1393.4 159.4 1391.5 158.3 1389 158.7 1387.5 159.2 1386.4 161.1 1386.9 162.6L1390.6 179.9 1378.6 172.1C1376.7 171 1374.7 171.9 1374.2 173.4 1372.7 174.8 1373.1 176.3 1374 177.3 1374.5 177.8 1374.5 177.8 1375 178.3L1392.7 189.3 1397.6 213.1 1356.9 187.4C1355.5 185.9 1353.5 186.8 1352 188.2 1351.5 189.6 1351.9 191.1 1352.8 192.1 1353.3 192.7 1353.3 192.7 1353.3 192.7L1400.2 223 1404.4 241.8 1388.6 231.8C1386.6 230.8 1385.1 231.2 1383.6 232.6 1383.1 234.1 1383 236 1383.9 237 1384.4 237.6 1384.4 237.6 1384.9 238.1L1406.9 251.7 1411.1 270.5 1392.6 264.9 1380.3 242.3C1379.4 240.3 1377 239.7 1375.5 240.1 1373.9 241.6 1372.9 243.5 1374.3 245L1383 261.5 1364 256.4 1338 206.8C1337.6 205.3 1335.2 204.7 1333.7 205.1 1332.1 206.5 1331.1 208.5 1332 210.5L1354.4 253 1331.6 245.8 1322 227.2C1321.1 225.2 1318.7 224.7 1317.2 226.1 1315.7 226.5 1314.6 228.4 1315.5 230.4L1322.4 243 1305.4 237.9C1303.9 237.3 1302 238.2 1300.9 240.1 1300.9 241.1 1301.3 242.6 1302.2 243.6 1302.2 243.6 1302.7 244.1 1303.2 244.6L1320.1 249.7 1307.6 256.6C1306.1 257 1305.5 259.5 1306 261 1306.4 261.5 1306.4 261.5 1306.4 261.5 1307.8 263 1309.8 263.1 1310.8 262.1L1329.4 252.6 1352.6 259.4 1309.5 282.2C1308 283.6 1307.5 285.1 1308.4 287 1308.4 287 1308.8 287.6 1308.8 287.6 1309.8 288.6 1311.2 289.1 1313.2 288.2L1362.3 262.7 1380.7 268.3 1364.2 277C1362.7 278.4 1361.6 280.3 1363 281.8 1362.5 282.3 1363 282.8 1363 282.8 1363.9 283.8 1365.9 283.9 1367.4 283.5L1389.9 271.1 1408.8 277.3 1394.6 290.5 1369.1 289.4C1367.2 289.4 1365.1 291.3 1365 293.2 1365.5 294.7 1366.9 296.2 1368.3 296.8L1387.5 297 1372.7 310.7 1317.8 308.5C1315.9 308.4 1314.3 309.9 1314.3 311.8 1314.2 313.8 1315.6 315.3 1317.6 315.4L1365.6 317.3 1347.7 333.7 1327.2 332.9C1325.2 332.9 1323.7 334.3 1323.6 336.2S1324.9 339.7 1326.9 339.8L1340.6 340.3 1327.9 352.1C1326.3 353.5 1326.3 355.5 1327.7 357 1329.1 358.5 1331.1 358.6 1332.6 357.2L1345.3 345.4 1345.2 359.6C1345.2 360.6 1345.2 361.6 1345.6 362.1 1346.1 362.6 1347.6 363.2 1348.5 363.2 1350.5 363.3 1352 361.9 1352.1 359.9L1352.4 338.8 1370.3 322.4 1368.8 370.9C1368.8 371.9 1368.8 372.8 1369.2 373.4 1369.7 373.9 1371.2 374.4 1372.1 374.4 1374.1 374.5 1375.6 373.1 1375.7 371.2L1377.4 315.8 1392.2 302.1 1390.9 321.2C1390.9 322.2 1391.8 323.2 1392.3 323.7 1392.8 324.2 1393.2 324.7 1394.2 324.8 1396.2 324.9 1398.2 323 1397.8 321.5L1399.3 295.5 1413.5 282.4 1418.2 301.7 1404.1 323.2C1403.5 324.7 1403.5 326.6 1404.4 327.6 1404.9 328.1 1404.9 328.1 1405.4 327.7 1406.8 329.2 1409.3 328.8 1410.3 326.9L1420.3 311.1 1424.9 330.4 1394.6 377.3C1394 378.7 1394.5 380.2 1395.4 381.3 1395.9 381.8 1395.9 381.8 1395.9 381.8 1397.8 382.8 1399.8 382.9 1400.8 381L1427 339.8 1431.9 363.6 1420.9 381.3C1419.9 383.2 1420.3 384.7 1421.2 385.7 1421.2 385.7 1421.7 386.2 1421.7 386.2 1423.6 387.3 1425.6 386.4 1426.7 385.4L1434 373 1437.7 390.3C1438.2 390.8 1438.7 391.3 1439.2 391.8 1439.6 392.3 1441.1 392.9 1442.1 392.9 1444.1 392 1445.6 390.6 1444.7 388.6L1440.9 371.3 1452.9 379.1C1454.8 380.2 1456.8 379.3 1457.8 378.3 1458.9 376.4 1458 374.4 1456.6 372.9L1438.9 361.9 1433.4 338.6 1474.1 364.2C1476 365.3 1478.5 364.9 1479 363.5 1480.1 361.5 1480.2 359.6 1478.3 358.5Z" fill="rgba(70, 126, 172, 1)"></path><path d="M938.5 467.4L961.9 484.3 965.8 509.6 941.9 500.4 930.4 474C930.4 474 930.2 473.7 930.2 473.7 929.8 473.2 928.8 473.1 928 473.2 927 473.6 926.6 474.8 927.3 475.6L937.4 498.6 925.8 494.2 921.2 484.1C921.2 484.1 921 483.8 921 483.8 920.5 483.3 919.6 483.2 918.8 483.3 917.8 483.7 917.4 484.9 918.1 485.7L921 492.7 912.5 489.3C911.8 489 910.5 489.6 910.2 490.3 909.6 491.2 910.4 492.3 911.2 492.6L919.7 496 912.7 498.9C911.7 499.3 911.3 500.5 911.9 501.3 912.3 502.3 913.5 502.7 914.3 502.1L924.4 497.5 935.8 502.2 912.7 512.3C911.7 512.6 911.3 513.8 912 514.6 912.4 515.7 913.6 516 914.4 515.4L940.7 503.9 964.7 513.2 944.4 529.5 915.6 526.4C914.7 526.3 913.9 526.9 913.8 527.9 913.6 528.9 914.3 529.7 915.3 529.8L940.6 532.5 930.9 540.3 920.2 539.2C919.2 539.1 918.4 539.7 918.3 540.7 918.2 541.7 918.8 542.5 919.8 542.6L927.1 543.4 919.6 549.5C918.5 549.9 918.6 551.1 919.3 551.9 919.9 552.7 920.9 552.8 921.7 552.2L928.8 546.5 928 553.8C927.9 554.8 928.5 555.6 929.5 555.7S931.3 555.2 931.4 554.2L932.5 543.5 942.3 535.7 939.5 561C939.4 562 940.1 562.8 941 562.9 942 563 942.8 562.3 942.9 561.4L946 532.6 966 516.5 969.9 541.8 953.4 564.5C952.9 565.4 953.2 566.4 953.9 567.2 954.8 567.8 955.8 567.4 956.6 566.8L971.4 546.4 973.3 558.7 966.7 567.6C966.1 568.6 966.5 569.6 967.1 570.4 968 571 969.1 570.6 969.6 570.2L974 564 975.5 573C975.6 573.8 976.5 574.9 977.5 574.5 978.5 574.1 979.4 573.4 979 572.4L977.5 563.4 983.7 567.7C984.6 568.3 985.6 567.9 986.2 567.5 986.5 566.8 986.6 565.8 986.1 565.3 986.1 565.3 985.9 565 985.9 565L977 558.4 975.2 546.1 995.5 560.9C996.4 561.5 997.5 561.1 998 560.7 998.3 559.9 998.4 559 998 558.4 998 558.4 997.8 558.2 997.8 558.2L974.4 541.3 970.5 516 994.4 525.3 1005.9 551.6C1006.2 552.7 1007.4 553 1008.3 552.4 1009.3 552 1009.7 550.8 1009 550L998.9 527 1010.5 531.4 1015.1 541.5C1015.5 542.6 1016.7 542.9 1017.5 542.3 1018.5 541.9 1018.9 540.7 1018.2 539.9L1015.3 532.9 1023.8 536.3C1024.5 536.6 1025.8 536 1026.1 535.3 1026.4 534.6 1026.3 533.9 1025.8 533.3 1025.6 533.1 1025.4 532.8 1024.9 532.7L1016.4 529.4 1023.4 526.4C1024.4 526 1024.8 524.8 1024.1 524 1024.1 524 1023.9 523.8 1023.9 523.8 1023.5 523.2 1022.5 523.1 1021.7 523.3L1011.6 527.9 1000 523.4 1023.1 513.3C1024.1 512.9 1024.5 511.7 1023.8 510.9 1023.8 510.9 1023.6 510.7 1023.6 510.7 1023.2 510.1 1022.2 510 1021.4 510.2L995.1 521.6 971.1 512.4 991.1 496.3 1019.9 499.4C1020.9 499.5 1021.7 498.9 1021.8 497.9 1021.9 496.9 1021.2 496.1 1020.3 496L995.2 493 1004.9 485.2 1015.6 486.4C1016.6 486.5 1017.4 485.8 1017.5 484.9S1017 483.1 1016 483L1008.7 482.2 1015.7 476.5C1016.5 475.9 1016.6 474.9 1016 474.1 1015.3 473.3 1014.3 473.2 1013.5 473.8L1006.5 479.5 1007.3 472.2C1007.3 471.7 1007.4 471.2 1007 470.6S1006 470.1 1005.6 470C1004.6 469.9 1003.8 470.5 1003.7 471.5L1002.5 482.2 992.8 490.1 995.5 464.7C995.6 464.2 995.6 463.8 995.2 463.2 995 462.9 994.3 462.6 993.8 462.6 992.8 462.5 992 463.1 991.9 464.1L988.8 492.8 968.8 508.9 964.9 483.6 981.7 460.3C982 459.6 982.1 458.6 981.7 458.1 981.7 458.1 981.5 457.8 981.5 457.8 980.6 457.2 979.5 457.6 979 458L964.2 478.4 962.3 466.1 969 457.2C969.3 456.5 969.4 455.5 969 455 969 455 968.7 454.7 968.7 454.7 967.8 454.1 966.8 454.5 966.3 454.9L961.9 461.1 960.4 452.1C960.2 451.8 960.2 451.3 960 451 959.6 450.5 958.9 450.2 958.1 450.3 957.1 450.7 956.3 451.4 956.7 452.4L958.2 461.4 952 457.1C951 456.5 950 456.9 949.5 457.3 948.9 458.2 949.3 459.2 949.7 459.8L958.6 466.4 960.5 478.7 940.1 463.9C939.2 463.3 938.2 463.7 937.6 464.1 937.5 465.6 937.6 466.9 938.5 467.4Z" fill="rgba(70, 126, 172, 1)"></path><path d="M1423 578.1L1433.3 567.1 1436.3 575.7C1436.6 576.6 1437.8 577.3 1439.1 577.2 1440.1 576.5 1440.8 575.3 1440.2 574.3L1436.8 563.4 1444.5 554.4 1451.5 577.2C1452.2 578.2 1453.4 578.9 1454.3 578.7 1455.8 578.1 1456.5 576.9 1455.8 575.9L1447.9 550.7 1460.1 537.4 1464.1 557.8 1476.2 540.9 1481.8 558 1464.3 577.7C1463.8 577.6 1463.8 578.1 1463.7 578.5 1463.5 579.3 1463.7 580.3 1464.5 580.9 1465.2 581.5 1466.6 581.3 1467.6 580.7L1483.4 562.8 1486.8 574.2 1479.2 582.7C1478.6 583.1 1478.5 583.5 1478.5 583.9 1478.4 584.3 1478.6 585.3 1479.4 585.9 1480.1 586.5 1481.5 586.3 1482.1 585.6L1488.4 579 1493.3 593.3C1493.4 594.7 1494.7 594.9 1496.1 594.8 1497 594.6 1497.7 593.4 1497.1 591.9L1492.7 577.7 1501.6 579.6C1502.8 579.9 1503.9 578.8 1504.1 577.9 1504.4 576.6 1503.7 575.6 1502.5 575.3L1491 572.9 1487.7 561.5 1510.6 566.5C1511.9 566.7 1512.9 566.1 1513.2 564.8 1513.3 564 1512.8 562.5 1511.5 562.2L1486.1 556.7 1480.5 539.6 1499.9 546 1491.6 527.3 1509.3 531.2 1517.3 555.9C1517.9 557.4 1519.1 557.7 1520.1 557.4 1521 557.2 1521.7 556 1521.6 554.6L1514 532.2 1525.4 534.6 1529.3 545.7C1529.4 547 1530.6 547.7 1532 547.2 1533 546.9 1533.7 545.7 1533.1 544.3L1530.5 535.7 1545.3 538.9C1546.6 539.2 1547.6 538.5 1547.9 537.3S1547.5 535 1546.3 534.7L1531.4 531.5 1537.3 524.8C1538.4 523.7 1538.3 522.3 1537.5 521.7 1536.4 520.6 1535.1 520.8 1534.4 521.9L1526.4 530.4 1514.9 527.9 1531.1 510.6C1531.8 509.4 1531.6 508 1530.9 507.4 1529.8 506.3 1528.4 506.5 1527.7 507.6L1510.3 526.9 1492.5 523.1 1507.8 509.6 1487.4 507.4 1499.6 494 1525 499.5C1526.3 499.8 1527.4 498.7 1527.6 497.9 1527.9 496.6 1527.2 495.6 1526 495.3L1502.7 490.3 1510.8 481.4 1522.2 483.9C1523.5 484.1 1524.5 483.5 1524.8 482.2 1525 481.3 1524.4 479.9 1523.1 479.6L1514.2 477.7 1524.2 466.5C1525.3 465.5 1525.1 464.1 1524 463.4 1523.2 462.8 1521.9 462.5 1521.2 463.7L1510.9 474.8 1507.9 466.1C1507.6 465.2 1506.4 464.5 1505.5 464.7 1504.6 465 1504 465.7 1503.9 466.2 1503.8 466.6 1503.7 467 1504 467.5L1507.4 478.4 1499.7 487.4 1492.7 464.6C1492 463.6 1490.8 462.9 1489.9 463.1 1489 463.4 1488.3 464.1 1488.2 465 1488.1 465.4 1488.1 465.4 1488.4 465.9L1496.3 491.1 1484.1 504.4 1480.1 484.1 1468 501 1462.4 483.8 1479.9 464.1C1480.5 463.3 1480.8 462.1 1479.7 460.9 1479 460.3 1477.6 460.5 1476.6 461.1L1460.8 479 1457.4 467.7 1465 459.1C1466.1 458.4 1465.9 457.1 1464.8 456 1464.1 455.3 1462.7 455.5 1461.7 456.2L1455.8 462.9 1450.9 448.5C1450.8 447.2 1449.5 446.9 1448.1 447 1447.6 447.4 1447 448.1 1446.9 448.5 1446.8 449 1446.8 449.4 1447.1 449.9L1451.5 464.2 1442.6 462.2C1441.4 462 1440.3 463.1 1440.1 463.9L1440.1 463.9C1439.8 465.2 1440.5 466.2 1441.7 466.5L1453.2 469 1456.5 480.3 1433.6 475.4C1432.3 475.1 1431.3 475.8 1431 477S1431.4 479.3 1432.7 479.6L1458.1 485.1 1463.7 502.3 1444.3 495.8 1452.6 514.5 1434.9 510.7 1426.9 485.9C1426.3 484.4 1425.1 484.2 1424.1 484.4 1423.2 484.6 1422.5 485.8 1422.6 487.2L1429.8 509.6 1418.8 507.2 1414.9 496.2C1414.8 494.8 1413.6 494.1 1412.2 494.7 1411.2 494.9 1410.5 496.1 1410.7 497.5L1413.7 506.1 1398.9 502.9C1397.6 502.6 1396.6 503.3 1396.3 504.5S1396.7 506.8 1397.9 507.1L1412.8 510.3 1406.9 517C1406.4 517.4 1406.3 517.8 1406.2 518.2 1406 519.1 1406.3 519.6 1406.7 520.1 1407.8 521.2 1409.1 521.1 1409.8 519.9L1417.8 511.4 1429.3 513.9 1413.1 531.2C1413 531.7 1412.9 532.1 1412.9 532.5 1412.7 533.4 1413 533.9 1413.3 534.4 1414.4 535.5 1415.8 535.4 1416.5 534.2L1433.9 514.9 1451.7 518.7 1436.4 532.3 1456.8 534.4 1444.6 547.8 1419.2 542.3C1417.9 542 1416.8 543.1 1416.6 544 1416.3 545.2 1417 546.3 1418.3 546.5L1441.1 551.5 1433.4 560.4 1422 558C1420.7 557.7 1419.7 558.4 1419.4 559.6S1419.8 561.9 1421.1 562.2L1430 564.1 1420 575.3C1419.5 575.6 1419.4 576 1419.3 576.5 1419.2 576.9 1419.5 577.8 1420.2 578.4 1421 579 1422.3 579.3 1423 578.1ZM1446.4 529.1L1459 518.1 1452.1 502.8 1468.2 508.1 1477.8 494.7 1481.3 510.9 1497.8 512.7 1485.2 523.7 1492.1 539 1476.4 533.8 1466.4 547.2 1463.3 531 1446.4 529.1Z" fill="rgba(70, 126, 172, 1)"></path><path d="M185.6 455.2L211.1 478.6 211.4 491.2 202.8 483.3C202.1 482.2 200.8 482.5 199.7 483.2 199.2 484 199.1 485.6 200 486.1L211.6 497.2 212.2 509.6 201.3 503.7 196.7 488.2C196.7 488.2 196.4 487.8 196.4 487.8 196 487.1 194.8 486.8 193.8 486.9 192.7 487.6 192.2 488.4 192.5 489.7L196 500.9 185.1 495 174.6 462.1C174.6 462.1 174.7 461.5 174.7 461.5 174.3 460.8 173.1 460.5 172.1 460.6 170.8 460.9 170.1 462.4 170.8 463.5L179.7 492.2 166.2 485.4 162.2 472.5C162.2 472.5 162.2 472.5 162 472.1 161.5 471.4 160.7 470.9 159.7 471 158.6 471.7 157.7 472.8 158.1 474.1L160.9 482.6 151 477.5C149.9 476.7 148.8 477.3 148.3 478.2 147.5 479.2 147.8 480.6 149.2 481.2L158.7 486.5 150.4 488.7C149.3 489.4 148.4 490.4 149.1 491.5 149.4 492.9 150.2 493.4 151.6 493L164.4 489 177.6 496.1 148.5 505.2C147.5 505.3 146.9 506.8 147.2 508.1 147.7 508.8 148.8 509.7 150.1 509.4L182.9 498.9 193.8 504.8 182.7 508.3C181.4 508.6 181.1 509.8 181.4 511.1 181.5 512.1 182.9 512.7 183.9 512.6L199.2 507.6 210.5 513.3 199.8 520 184.3 516.5C183.1 516.2 182 516.9 181.7 518.1 181.2 518.9 182.1 520.4 183.3 520.7L194.7 523.2 184.1 529.9 150.4 522C149.2 521.7 148.1 522.4 147.8 523.6 147.5 524.8 148.2 525.9 149.4 526.2L178.9 533.2 166.5 541 153.3 538.1C152.1 537.8 151 538.5 150.8 539.7 150.5 540.9 151.2 542 152.4 542.2L161 544.5 151.8 550.3C150.7 551 150.5 552.2 151.1 553.3 151.8 554.4 153 554.6 154.1 553.9L163.3 548.2 161.4 556.5C161.1 557.7 161.8 558.8 163 559.1S165.3 558.7 165.6 557.5L168.4 544.9 181.3 536.8 174.6 566.1C174.4 567.3 175 568.4 176.2 568.7 177.4 569 178.5 568.3 178.8 567.1L186.4 533.6 197 526.9 194.4 538.2C194.2 539.4 194.9 540.5 196.1 540.8 197.3 541.1 198.4 540.4 198.6 539.2L202.1 523.7 212.4 517.2 212.8 529.2 201.9 541.2C201.4 542 201.4 543.6 202.2 544.1 203.3 545 204.3 544.9 205.4 544.2L213.3 535.6 213.7 547.6 190.3 573.1C189.5 574.2 189.5 575.1 190.2 576.2 191.3 577.1 192.6 576.8 193.4 576.3L214.1 554 214.5 569.2 205.7 578.8C204.6 579.5 204.9 580.8 205.6 581.9 206.4 582.4 208 582.5 208.9 581.4L214.7 575.2 215.4 586C215.1 587.2 216.2 588.1 217.7 588.1 218.7 588 219.5 587 219.5 586L219.1 574.9 225.6 581.1C226.6 582 228 581.6 228.5 580.8 229.6 580.1 229.5 579.2 229 578.4 228.8 578.1 228.8 578.1 228.6 577.7L218.9 568.9 218.6 553.8 240.7 574.2C241.4 575.3 242.7 574.9 243.8 574.2 244.3 573.4 244.2 572.4 243.7 571.7 243.5 571.3 243.5 571.3 243.5 571.3L218.1 547.4 217.7 535.3 226.3 543.3C227.4 544.1 228.3 544 229.4 543.3 229.9 542.5 230.2 541.3 229.7 540.6 229.5 540.2 229.5 540.2 229.3 539.8L217.3 529 216.9 516.9 227.5 522.5 232.6 537.8C232.9 539.1 234.3 539.7 235.3 539.6 236.4 538.9 237.3 537.9 236.6 536.8L233.1 525.6 244.2 531 254.5 564.4C254.6 565.4 256 566 257 565.9 258.1 565.2 259 564.2 258.6 562.8L249.7 534.1 262.9 541.2 266.7 553.6C267 555 268.4 555.6 269.5 554.9 270.5 554.8 271.4 553.8 271 552.4L268.2 543.9 278.1 549C278.9 549.5 280.2 549.2 281.1 548.1 281.3 547.5 281.2 546.6 280.7 545.8 280.7 545.8 280.5 545.5 280.2 545.1L270.4 540 278.9 537.2C279.8 537.1 280.5 535.7 280.4 534.8 280.1 534.4 280.1 534.4 280.1 534.4 279.4 533.3 278.2 533 277.5 533.5L265 537.3 251.5 530.4 280.6 521.3C281.7 520.6 282.2 519.8 281.9 518.4 281.9 518.4 281.6 518.1 281.6 518.1 281.2 517.3 280.3 516.8 279 517.2L245.9 527.3 235.3 521.7 246.4 518.3C247.5 517.6 248.4 516.5 247.7 515.4 248 515.2 247.8 514.8 247.8 514.8 247.3 514.1 246.2 513.8 245.2 513.9L229.9 518.9 219 513 229.3 506.5 244.8 510.1C246 510.3 247.5 509.4 247.7 508.2 247.6 507.2 246.9 506.1 246.1 505.6L234.4 503.3 245 496.6 278.5 504.2C279.7 504.4 280.8 503.7 281.1 502.6 281.3 501.4 280.6 500.3 279.4 500L250.2 493.4 263 485.3 275.5 488.1C276.7 488.4 277.8 487.7 278.1 486.5S277.7 484.2 276.5 483.9L268.1 482 277.3 476.2C278.4 475.6 278.6 474.4 277.9 473.3 277.3 472.2 276.1 471.9 275 472.6L265.8 478.4 267.5 469.6C267.6 469 267.7 468.4 267.5 468.1 267.3 467.7 266.4 467.2 265.8 467.1 264.6 466.8 263.5 467.5 263.3 468.7L260.7 481.6 247.8 489.7 254.2 460C254.4 459.4 254.5 458.8 254.3 458.5 254 458.1 253.2 457.6 252.6 457.5 251.4 457.2 250.3 457.9 250.1 459.1L242.7 492.9 232.1 499.6 235 488C235.2 487.5 234.7 486.7 234.5 486.4 234.2 486 234 485.6 233.4 485.5 232.2 485.2 230.7 486.1 230.8 487.1L227 502.9 216.7 509.3 216 496.9 227.2 485.3C227.7 484.5 227.9 483.3 227.5 482.6 227.2 482.2 227.2 482.2 226.9 482.4 226.2 481.3 224.6 481.3 223.7 482.4L215.8 490.9 215.2 478.5 239.1 453.2C239.6 452.3 239.5 451.4 239.1 450.6 238.9 450.3 238.9 450.3 238.9 450.3 237.8 449.4 236.6 449.1 235.7 450.2L215 472.5 214.6 457.4 223.4 447.7C224.3 446.7 224.2 445.7 223.7 445 223.7 445 223.5 444.6 223.5 444.6 222.4 443.7 221.1 444.1 220.4 444.5L214.4 451.3 214.1 440.3C213.9 439.9 213.6 439.5 213.4 439.2 213.2 438.8 212.3 438.3 211.7 438.2 210.4 438.5 209.3 439.2 209.6 440.5L210 451.6 203.5 445.4C202.4 444.6 201.1 444.9 200.4 445.3 199.5 446.4 199.8 447.7 200.5 448.8L210.2 457.6 210.9 472.5 188.8 452.1C187.7 451.3 186.2 451.2 185.7 452.1 184.8 453.1 184.5 454.3 185.6 455.2Z" fill="rgba(70, 126, 172, 1)"></path><path d="M776.2 420L771.9 434.5 765.3 428.1C764.7 427.4 763.3 427.3 762.2 428 761.6 429.1 761.5 430.5 762.5 431.1L770.4 439.4 767.5 450.8 751.1 433.6C750 432.9 748.6 432.8 747.9 433.5 746.9 434.6 746.8 436 747.8 436.6L766.1 455.7 761.1 473 748.4 456.6 745.1 477.1 732.5 464.2 739.4 438.7C739.8 438.6 739.7 438.2 739.6 437.8 739.4 437 738.8 436.2 737.8 436 736.9 435.8 735.7 436.6 735.1 437.6L728.9 460.6 720.9 452 723.9 440.9C724.2 440.4 724.1 440 724 439.5 723.9 439.1 723.2 438.4 722.3 438.2 721.3 438 720.2 438.7 720 439.7L717.3 448.4 706.5 437.7C705.8 436.6 704.5 436.9 703.4 437.6 702.6 438.3 702.5 439.6 703.7 440.7L714 451.5 705.2 453.7C703.9 454 703.4 455.5 703.6 456.3 704 457.6 705 458.2 706.3 457.9L717.6 455 725.6 463.7 703 469.5C701.7 469.8 701.1 470.8 701.4 472.1 701.6 472.9 702.8 474 704 473.7L729.2 467.3 741.9 480.1 721.6 483.1 737.4 496 719.8 500.5 701.6 481.9C700.5 480.8 699.2 481.1 698.5 481.8 697.7 482.4 697.6 483.8 698.4 484.9L715.2 501.7 703.8 504.6 695.5 496.4C694.7 495.2 693.4 495.1 692.3 496.3 691.6 496.9 691.5 498.3 692.7 499.4L698.8 505.8 684.1 509.6C682.8 509.9 682.2 511 682.5 512.2S683.9 514.1 685.1 513.8L699.8 510 697.6 518.7C697 520.1 697.8 521.3 698.7 521.5 700.2 522 701.4 521.3 701.5 519.9L704.9 508.8 716.2 505.9 709.5 528.6C709.4 530 710.1 531.1 711.1 531.3 712.5 531.9 713.7 531.1 713.8 529.8L720.8 504.7 738.5 500.2 730.8 519.2 750 512.1 745 529.4 719.8 535.8C718.5 536.1 718 537.6 718.2 538.5 718.6 539.7 719.6 540.3 720.9 540L744 534.2 740.7 545.7 729.3 548.6C728.1 548.9 727.4 550 727.7 551.2 728 552.1 729.1 553.1 730.4 552.8L739.2 550.6 735.3 565C734.7 566.5 735.5 567.6 736.8 567.7 737.8 567.9 739.1 567.6 739.2 566.2L743.5 551.7 750.1 558.1C750.7 558.8 752.1 558.9 752.8 558.3 753.5 557.7 753.7 556.7 753.6 556.3 753.5 555.9 753.4 555.5 752.9 555.1L745 546.9 747.9 535.4 764.3 552.7C765.4 553.3 766.7 553.4 767.5 552.8 768.2 552.1 768.4 551.2 768.2 550.4 768.1 549.9 768.1 549.9 767.6 549.6L749.3 530.6 754.3 513.2 767 529.7 770.3 509.2 782.9 522 776 547.5C775.8 548.4 776.1 549.7 777.6 550.2 778.5 550.4 779.7 549.7 780.3 548.6L786.5 525.6 794.5 534.3 791.5 545.3C790.9 546.4 791.6 547.5 793.1 548.1 794.1 548.3 795.2 547.5 795.8 546.5L798.1 537.8 808.9 548.5C809.6 549.7 810.9 549.4 812 548.6 812.3 548.1 812.5 547.1 812.4 546.7 812.3 546.3 812.2 545.9 811.7 545.6L801.4 534.8 810.2 532.5C811.4 532.2 812 530.8 811.7 529.9L811.7 529.9C811.4 528.7 810.4 528 809.1 528.3L797.8 531.2 789.8 522.5 812.4 516.8C813.7 516.5 814.3 515.4 814 514.1S812.6 512.3 811.4 512.6L786.2 519 773.5 506.1 793.8 503.2 778 490.2 795.6 485.7 813.8 504.4C814.9 505.4 816.2 505.1 816.9 504.5 817.6 503.8 817.7 502.5 817 501.3L800.6 484.4 811.6 481.7 819.9 489.8C820.6 491 822 491.1 823.1 489.9 823.8 489.3 823.9 487.9 823.1 486.8L816.6 480.4 831.3 476.7C832.6 476.3 833.2 475.3 832.9 474S831.5 472.1 830.2 472.5L815.5 476.2 817.8 467.6C818.1 467 818 466.6 817.9 466.2 817.7 465.4 817.2 465 816.7 464.7 815.2 464.2 814 465 813.9 466.3L810.5 477.5 799.2 480.4 805.9 457.6C805.8 457.2 805.7 456.8 805.6 456.4 805.4 455.5 804.8 455.2 804.3 454.9 802.8 454.4 801.7 455.1 801.6 456.5L794.5 481.5 776.9 486 784.6 467.1 765.4 474.2 770.4 456.8 795.6 450.4C796.8 450.1 797.4 448.6 797.1 447.8 796.8 446.5 795.8 445.9 794.5 446.2L771.8 452 774.7 440.5 786.1 437.6C787.3 437.3 788 436.3 787.6 435S786.3 433.1 785 433.4L776.2 435.7 780.1 421.3C780.4 420.7 780.3 420.3 780.2 419.9 780.1 419.5 779.5 418.7 778.5 418.5 777.6 418.3 776.3 418.6 776.2 420ZM777.1 474.3L770.7 489.8 783.7 500.4 766.9 502.9 764.3 519.2 753.9 506.2 738.3 511.9 744.7 496.4 731.7 485.9 748.1 483.5 751.1 467.1 761.1 480.2 777.1 474.3Z" fill="rgba(70, 126, 172, 1)"></path><path d="M720.6 227.3L687.6 213.3 683.6 204.2 697.2 186.7 707.2 187.9 728.8 216.7C729.1 216.9 729.1 216.9 729.5 217.2 730.2 217.7 731.1 217.9 732.3 217.2 733.1 216.1 733.2 215.2 732.5 214L713.5 189 728.9 191 737.4 202C737.4 202 737.8 202.2 737.8 202.2 738.4 202.8 739.4 203 740.5 202.2 741.4 201.8 741.5 200.2 740.8 199.1L735.5 191.7 746.8 193.4C747.8 193.5 748.9 192.8 749.4 191.5S748.4 189.1 747.1 188.7L736.2 187.3 743.2 181.8C744.3 181 744.4 179.5 743.6 178.3 743 177.8 741.7 177.3 740.5 178.1L729.6 186.6 713.8 184.3 738.9 165.3C740 164.6 740.1 163 739.7 162.1 738.7 161.3 737.4 160.9 736.3 161.7L707.9 183.5 697.5 182.1 689.4 162.1 695.7 153.9 731.2 149C732.5 148.9 733.3 147.8 733.1 146.6S731.9 144.6 730.7 144.8L699.4 149.1 709.2 136.4 722.6 134.7C723.8 134.5 724.6 133.5 724.7 131.9S723.5 129.9 722.3 130.1L712.9 131.6 720.1 122.3C720.9 121.3 720.4 119.8 719.4 119 718.3 118.2 717.1 118.4 716.3 119.4L709.2 128.7 708 119.6C708.1 118 707.1 117.2 705.6 117.7 704.4 117.9 703.6 118.9 703.7 120.1L705.5 133.5 695.7 146.2 691.9 114.8C691.8 113.6 690.4 112.5 689.2 112.7S687.2 113.9 687.3 115.1L691.9 151 685.6 159.2 663.9 156.1 660.2 146.7 674.2 113.7C674.6 112.4 673.9 111.3 672.9 110.5 671.6 110 670.4 110.8 669.6 111.8L657.6 140.9 651.7 126.5 657.2 113.7C657.7 112.4 656.9 111.3 655.9 110.5 654.9 110.3 653.4 110.8 653 112.1L649.4 120.3 645 109.7C644.5 108.9 643.2 108.4 642 108.6 640.9 109.3 640.4 110.6 640.9 111.5L645.3 122 636.5 118.5C635.6 118.3 634.1 118.8 633.9 119.8 633.1 120.8 633.5 121.7 634.5 122.5 634.5 122.5 634.9 122.8 634.9 122.8L647.6 128.2 653.5 142.6 624.5 130.6C623.2 130.1 621.9 130.3 621.5 131.6 621 132.9 621.5 133.7 622.2 134.3 622.5 134.5 622.5 134.5 622.5 134.5L656.1 148.5 659.8 157.9 646.3 175.4 636.5 173.8 614.3 145.2C613.9 144.3 612.3 144.2 611.4 144.6 610.3 145.4 610.2 146.9 610.9 148.1L629.9 173.1 614.5 171.1 606 160.1C605.2 159 604 158.5 603.2 159.6 602 160.3 601.9 161.9 602.3 162.8L608.2 170 596.9 168.4C595.7 168.6 594.5 169.3 594.1 170.6 594.1 171.2 594.6 172.1 595.3 172.6 595.6 172.9 595.6 172.9 596.2 172.8L607.5 174.5 600.3 180.3C599.1 181.1 599.3 182.3 599.7 183.2 600 183.5 600 183.5 600.4 183.7 601.1 184.2 602 184.4 602.9 184L613.8 175.5 629.2 177.5 604.2 196.5C603.4 197.5 602.9 198.8 604 199.6 604 200.2 604 200.2 604.4 200.5 605.1 201 606.3 200.9 607.2 200.5L635.8 178.2 645.6 179.8 654.1 200 648 207.9 612.1 212.5C610.9 212.6 609.8 214 610 215.2S611.5 217.5 612.7 217.4L644 213 634.5 225.4 620.8 227.4C619.6 227.6 618.8 228.6 619 229.8 619.1 231.1 620.1 231.8 621.4 231.7L630.5 230.5 623.3 239.8C622.8 240.5 622.7 242 623.7 242.8 624.7 243.6 626.6 243.4 627.1 242.7L634.3 233.4 635.4 242.6C635.5 243.2 635.6 243.8 635.9 244 636.6 244.6 637.2 244.5 637.8 244.4 639 244.3 639.8 243.2 639.7 242L638.2 228.3 647.8 215.9 651.5 247.3C651.6 247.9 651.9 248.2 652.6 248.7 652.9 249 653.3 249.2 653.9 249.1 655.1 249 656.2 247.6 656 246.4L651.7 210.8 657.8 202.9 679.2 205.7 683.5 215.1 669.2 248.4C669 249.4 669.2 250.6 669.9 251.1 670.2 251.4 670.2 251.4 670.5 251 671.5 251.8 673 251.3 673.5 250L685.5 221 691.7 235.6 686.2 248.4C686 249.3 686.5 250.2 687.1 250.7 687.1 250.7 687.5 251 687.5 251 688.5 251.8 690 251.3 690.4 250L693.9 241.2 698.4 251.8C698.5 252.4 698.8 252.6 699.2 252.9 699.8 253.4 700.8 253.6 701.1 253.3 702.5 252.8 703 251.5 702.8 250.3L698.4 239.7 706.6 243.3C707.9 243.8 709.3 243.3 709.8 242 710 241 709.5 239.5 708.5 239.4L695.8 233.9 689.9 219.5 719 231.5C720.3 232 721.4 231.2 722.2 230.2 722.4 229.2 721.9 227.8 720.6 227.3ZM691.8 185.9L681.5 199.3 679.9 201.3 677.4 201 661 198.8 658.2 198.2 657.2 195.9 651 180.6 650 178.3 651.6 176.2 662 162.8 663.6 160.8 666.1 161.1 682.4 163.3 684.9 163.6 686.2 166.2 692.5 181.5 693.4 183.8 691.8 185.9Z" fill="rgba(70, 126, 172, 1)"></path></g><defs><mask id="SvgjsMask1058"><rect width="1560" height="560" fill="#ffffff"></rect></mask><filter id="SvgjsFilter1059"><feGaussianBlur stdDeviation="1"></feGaussianBlur></filter></defs></svg>