<svg xmlns="http://www.w3.org/2000/svg" version="1.1" xmlns:xlink="http://www.w3.org/1999/xlink" xmlns:svgjs="http://svgjs.dev/svgjs" width="1560" height="560" preserveAspectRatio="none" viewBox="0 0 1560 560"><g mask="url(&quot;#SvgjsMask1000&quot;)" fill="none"><circle r="5.28" cx="247.1" cy="265.23999999999995" filter="url(#SvgjsFilter1001)" fill="rgba(51, 121, 194, 0.58)"></circle><circle r="8.135" cx="1317.965" cy="271.53499999999997" filter="url(#SvgjsFilter1001)" fill="rgba(51, 121, 194, 0.58)"></circle><circle r="8.455" cx="734.355" cy="67.665" filter="url(#SvgjsFilter1001)" fill="rgba(51, 121, 194, 0.58)"></circle><circle r="5.595" cx="1513.945" cy="279.06500000000005" filter="url(#SvgjsFilter1001)" fill="rgba(51, 121, 194, 0.58)"></circle><circle r="6.745" cx="1408.3149999999998" cy="25.065" filter="url(#SvgjsFilter1001)" fill="rgba(51, 121, 194, 0.58)"></circle><circle r="4.705" cx="118.445" cy="511.705" filter="url(#SvgjsFilter1001)" fill="rgba(51, 121, 194, 0.58)"></circle><circle r="6.935" cx="28.525" cy="246.085" filter="url(#SvgjsFilter1001)" fill="rgba(51, 121, 194, 0.58)"></circle><circle r="7.47" cx="1315.1100000000001" cy="564.32" filter="url(#SvgjsFilter1001)" fill="rgba(51, 121, 194, 0.58)"></circle><circle r="4.685" cx="235.725" cy="444.785" filter="url(#SvgjsFilter1001)" fill="rgba(51, 121, 194, 0.58)"></circle><circle r="9.33" cx="1047.78" cy="362.03999999999996" filter="url(#SvgjsFilter1001)" fill="rgba(51, 121, 194, 0.58)"></circle><circle r="7.665" cx="949.615" cy="291.735" filter="url(#SvgjsFilter1001)" fill="rgba(51, 121, 194, 0.58)"></circle><circle r="5.05" cx="196.60000000000002" cy="195.09" filter="url(#SvgjsFilter1001)" fill="rgba(51, 121, 194, 0.58)"></circle><circle r="8.35" cx="108.97" cy="267.93" filter="url(#SvgjsFilter1001)" fill="rgba(51, 121, 194, 0.58)"></circle><circle r="8.35" cx="1541.85" cy="127.02" filter="url(#SvgjsFilter1001)" fill="rgba(51, 121, 194, 0.58)"></circle><circle r="6.31" cx="1428.61" cy="383.06" filter="url(#SvgjsFilter1001)" fill="rgba(51, 121, 194, 0.58)"></circle><circle r="6.755" cx="431.475" cy="129.525" filter="url(#SvgjsFilter1001)" fill="rgba(51, 121, 194, 0.58)"></circle><circle r="9.13" cx="797.33" cy="501.99" filter="url(#SvgjsFilter1001)" fill="rgba(51, 121, 194, 0.58)"></circle><circle r="6.09" cx="517.63" cy="540.44" filter="url(#SvgjsFilter1001)" fill="rgba(51, 121, 194, 0.58)"></circle><circle r="6.54" cx="1454.86" cy="144.85999999999999" filter="url(#SvgjsFilter1001)" fill="rgba(51, 121, 194, 0.58)"></circle><circle r="6.66" cx="760.9" cy="159.68" filter="url(#SvgjsFilter1001)" fill="rgba(51, 121, 194, 0.58)"></circle><path d="M202.5 406.6L191.5 448.3 158.2 467.4 158.3 429 189.1 398.8C189.1 398.8 189.3 398.3 189.3 398.3 189.8 397.4 189.5 396 188.8 395 187.7 393.8 185.9 393.9 185.1 395.3L158.2 421.8 158.3 403.1 170 391.3C170 391.3 170.2 390.8 170.2 390.8 170.7 389.9 170.4 388.5 169.7 387.5 168.6 386.3 166.8 386.4 166 387.8L157.8 395.6 158 381.9C158 380.7 156.5 379.2 155.3 379.2 153.7 378.8 152.7 380.6 152.6 381.8L152.5 395.5 144.6 387.3C143.5 386.1 141.6 386.2 140.8 387.6 139.6 388.7 139.7 390.5 141.1 391.3L152.9 403 152.4 421.4 125.9 394.5C124.9 393.3 123 393.4 122.2 394.8 121 395.9 121.1 397.7 122.4 398.5L152.6 429.3 152.5 467.8 118.8 448.2 107.7 406.2C107.4 404.8 106 404 104.6 404.4 103.2 404.8 102.4 406.1 102.8 407.5L112.5 444.5 96.4 435.1 92.2 419.4C91.8 418 90.5 417.2 89.1 417.6 87.7 418 86.9 419.3 87.2 420.8L90.1 431.4 77.5 424.1C76.4 422.9 74.7 423.7 73.9 425 73.1 426.4 73.5 427.8 74.9 428.6L86.6 435.4 75.9 438.2C74.5 438.6 73.7 439.9 74.1 441.4S75.8 443.6 77.2 443.2L92.8 439.1 109 448.5 72.1 458.2C70.6 458.6 69.9 460 70.2 461.4 70.6 462.8 72 463.6 73.4 463.2L115.3 452.1 148.6 471.5 115.2 490.6 74.7 479.6C73.1 479.3 71.8 480.4 71 481.7 70.7 483.3 71.8 484.6 73.1 485.3L109.6 495.1 93.4 504.3 77.4 499.8C75.7 499.5 74.5 500.6 73.7 501.9 73.4 503.5 74.5 504.8 75.4 505.3L86.4 508.1 74.5 515C73.6 515.7 72.5 517.5 73.6 518.7 74.7 519.9 76 520.7 77.3 519.6L89.1 512.7 86.3 523.7C86 525.3 87.1 526.5 88 527.1 89.1 527.1 90.6 526.8 91.1 525.9 91.1 525.9 91.4 525.4 91.4 525.4L95.9 509.4 112.1 500.2 102.3 536.6C102 538.2 103 539.4 103.9 540 105.1 540 106.5 539.7 107.1 538.8 107.1 538.8 107.3 538.3 107.3 538.3L118.3 496.6 151.7 477.5 151.6 515.9 120.8 546.1C119.6 547.2 119.7 549.1 121 549.9 122.1 551.1 124 551 124.8 549.7L151.6 523.2 151.6 541.8 139.9 553.6C138.7 554.7 138.8 556.6 140.1 557.4 141.2 558.6 143.1 558.5 143.9 557.2L152.1 549.3 151.9 563C151.8 564.2 153.4 565.7 154.5 565.8 155.7 565.8 156.6 565.2 157.2 564.3 157.4 563.8 157.7 563.4 157.5 562.7L157.7 548.9 165.5 557.1C166.6 558.4 168.5 558.2 169.3 556.9 169.3 556.9 169.5 556.4 169.5 556.4 170.1 555.5 169.7 554.1 169.1 553.2L157.2 541.5 157.2 522.8 183.7 549.7C184.8 550.9 186.7 550.8 187.5 549.4 187.5 549.4 187.7 549 187.7 549 188.3 548.1 187.9 546.7 187.2 545.7L157 514.9 157.1 476.4 190.4 495.8 201.5 537.7C201.9 539.2 203.2 539.9 204.6 539.6 206.1 539.2 206.8 537.8 206.5 536.4L197.1 499.7 213.3 509.1 217.5 524.8C217.8 526.2 219.2 527 220.6 526.6S222.8 524.9 222.4 523.4L219.6 512.8 231.3 519.6C232.6 520.4 234.1 520 234.8 518.6 235.6 517.3 235.3 515.9 233.9 515.1L222.2 508.3 232.9 505.5C233.6 505.3 234.3 505.1 234.8 504.2S235.2 502.6 235 501.9C234.6 500.4 233.3 499.7 231.8 500L216.2 504.2 200 494.8 237 485C237.7 484.8 238.4 484.6 238.9 483.7 239.2 483.3 239.3 482.1 239.1 481.4 238.7 480 237.3 479.2 235.9 479.6L194 490.7 160.7 471.3 194.1 452.2 235.8 463.2C236.9 463.3 238.4 462.9 238.9 462 238.9 462 239.2 461.6 239.2 461.6 239.5 460 238.4 458.7 237.5 458.2L201.1 448.5 217.3 439.2 233.3 443.7C234.5 443.8 235.9 443.4 236.4 442.5 236.4 442.5 236.7 442.1 236.7 442.1 237 440.5 235.9 439.2 235 438.7L224 435.9 235.9 429C236.1 428.5 236.8 428.3 237.1 427.9 237.6 427 237.7 425.8 237 424.9 236 423.6 234.6 422.8 233.4 423.9L221.5 430.9 224.3 419.9C224.6 418.3 223.6 417 222.7 416.5 221.1 416.2 219.8 417.3 219.3 418.2L214.8 434.2 198.6 443.4 208.3 407C208.7 405.4 207.6 404.1 206.7 403.6 204.6 404.2 202.9 405 202.5 406.6Z" fill="rgba(51, 121, 194, 0.58)"></path><path d="M680.4 513.1L720.8 475.3 741 476.4 727.3 489.1C725.4 490.1 725.8 492.2 726.8 494.1 728 495 730.5 495.2 731.4 494L750.6 476.8 770.4 477.3 759.7 493.9 734.3 499.5C734.3 499.5 733.7 499.8 733.7 499.8 732.5 500.5 731.9 502.3 732 503.9 732.9 505.7 734.2 506.6 736.4 506.3L754.6 502.1 743.8 518.8 690.1 531.5C690.1 531.5 689.2 531.2 689.2 531.2 687.9 531.9 687.4 533.7 687.4 535.3 687.8 537.5 690 538.6 691.8 537.7L738.7 527 726.1 547.7 705.2 552.6C705.2 552.6 705.2 552.6 704.5 552.9 703.3 553.5 702.4 554.8 702.5 556.3 703.4 558.2 705 559.7 707.2 559.3L721.1 555.9 711.8 571C710.3 572.6 711.2 574.4 712.5 575.3 714.1 576.9 716.3 576.5 717.4 574.3L727 559.8 729.5 573.4C730.5 575.2 732.1 576.8 733.9 575.8 736.1 575.4 737 574.2 736.6 572L731.8 551 744.7 530.9 755.7 578.4C755.7 579.9 757.9 581.1 760.1 580.8 761.3 580.1 762.8 578.5 762.5 576.4L749.8 522.7 760.5 506 764.7 524.2C765 526.4 766.9 527 769.1 526.6 770.6 526.6 771.8 524.4 771.8 522.8L765.6 497.8 776.1 480.5 785.5 498.3 778 522.7C777.4 524.6 778.4 526.4 780.3 527 781.5 527.9 784 526.6 784.5 524.7L790 506.9 799.4 524.7 782.6 577.5C782.1 579.3 783 581.2 784.9 581.8 786.8 582.3 788.6 581.4 789.2 579.5L804 533.3 815 554.1 808.6 574.7C808.1 576.6 809 578.4 810.9 579 812.8 579.6 814.6 578.6 815.2 576.7L819.9 563.3 828 578.6C828.9 580.4 830.8 581 832.6 580.1 834.5 579.1 835.1 577.2 834.1 575.4L826 560 839.1 564.1C841 564.7 842.8 563.7 843.4 561.8S843 558.1 841.1 557.5L821.4 551.5 810.1 530 856 544.2C857.9 544.7 859.7 543.8 860.3 541.9 860.9 540 859.9 538.2 858 537.6L805.6 521.4 796.2 503.7 814 509.1C815.8 509.7 817.7 508.8 818.3 506.9 818.8 505 817.9 503.2 816 502.6L791.6 495.1 782.5 477.9 801.8 478.7 819.6 497.5C820.9 498.4 823.3 498.7 824.2 497.4 825.8 495.9 825.7 494.3 824.8 492.5L812 478.8 831.3 479.6 869.1 520C870.7 521.5 872.2 521.5 874.1 520.5 875.6 518.9 875.2 516.7 874.6 515.5L841.5 479.7 865.7 481 880 496.2C881 498 883.2 497.6 885 496.7 885.9 495.4 886.2 492.9 884.6 491.4L875.4 481.4 892.7 481.6C894.6 482.2 896.1 480.6 896.4 478.1 896.3 476.6 894.8 475 893.2 475.1L875.5 474.2 886.1 464.7C887.7 463.1 887.3 461 886 460.1 885.1 458.2 883.5 458.2 882.3 458.9 881.7 459.2 881.7 459.2 881.1 459.5L865.9 473.8 841.7 472.5 876.9 439.8C878.7 438.8 878.4 436.7 877.4 434.8 876.1 433.9 874.6 433.9 873.4 434.6 872.8 434.9 872.8 434.9 872.8 434.9L831.4 472.5 812.2 471.7 825.8 458.9C827.4 457.4 827.3 455.8 826.4 454 825.1 453.1 823.2 452.5 822 453.1 821.4 453.5 821.4 453.5 820.8 453.8L801.9 471.6 782.7 470.8 792.9 454.4 817.9 448.3C820 447.9 821.2 445.7 821.2 444.2 820.2 442.3 818.6 440.8 816.8 441.8L798.6 445.9 808.4 428.9 863 416.5C864.6 416.5 865.8 414.3 865.7 412.8 864.8 410.9 863.2 409.4 861 409.8L814.1 420.4 827 400.3 847.4 395.8C849.5 395.4 850.7 393.2 849.7 391.4 849.7 389.9 848.1 388.3 846 388.7L832.1 392.1 841.3 377C842.3 375.8 841.9 373.6 840.3 372.1 839.4 371.8 837.8 371.8 836.6 372.5 836.6 372.5 836 372.8 835.4 373.1L826.1 388.2 822.7 374.3C822.6 372.8 820.4 371.6 818.9 371.6 818.3 372 818.3 372 818.3 372 816.4 372.9 815.9 374.8 816.5 376L821 396.4 808.5 417.2 797.5 369.6C796.5 367.8 795.2 366.9 793.1 367.3 793.1 367.3 792.4 367.6 792.4 367.6 791.2 368.2 790.3 369.5 790.7 371.7L802.8 425.7 792.6 442 788.4 423.8C787.5 422 785.9 420.5 784.1 421.4 783.7 420.8 783.1 421.1 783.1 421.1 781.9 421.8 781.3 423.7 781.3 425.2L787.5 450.2 776.7 466.9 767.6 449.7 775.1 425.4C775.7 423.5 774.4 421 772.6 420.5 771 420.5 769.2 421.5 768.3 422.7L763.1 441.1 753.7 423.4 769.9 370.9C770.5 369 769.5 367.2 767.6 366.6 765.7 366 763.9 367 763.3 368.9L749.2 414.8 737.8 393.3 743.9 373.7C744.5 371.8 743.5 369.9 741.6 369.4S737.9 369.8 737.3 371.6L733.3 384.8 725.2 369.4C724.2 367.6 722.3 367 720.5 368 718.7 369 718.1 370.8 719.1 372.7L727.2 388 713.4 384.3C712.5 384 711.5 383.7 710.9 384 710.3 384.3 709.4 385.6 709.1 386.5 708.6 388.4 709.5 390.3 711.4 390.8L731.7 396.6 743 418 696.5 404.2C695.6 403.9 694.6 403.6 694 403.9 693.4 404.3 692.5 405.5 692.2 406.5 691.6 408.3 692.6 410.2 694.5 410.8L747.6 426.6 757 444.4 738.8 438.3C737.9 438 736.7 438.6 736.1 439 735.5 439.3 734.8 439.6 734.6 440.6 734 442.4 735.3 444.9 736.8 444.8L761.5 453 770.6 470.1 750.7 469.6 733.5 450.5C732.3 449.6 730.4 449 729.2 449.7 728.6 450 728.6 450 728.9 450.6 727.1 451.6 726.8 454.1 728.4 455.6L741.1 469.2 721.2 468.8 683.7 427.4C682.4 426.5 680.9 426.6 679.7 427.2 679.1 427.5 679.1 427.5 679.1 427.5 677.5 429.1 677 431 678.5 432.5L711.6 468.4 687.4 467.1 673.1 451.9C671.5 450.4 670 450.4 668.7 451 668.7 451 668.1 451.4 668.1 451.4 666.6 453 667 455.1 667.6 456.3L677.8 466.7 660.1 465.8C659.5 466.1 658.8 466.5 658.2 466.8 657.6 467.1 656.7 468.4 656.4 469.3 656.8 471.5 657.8 473.3 659.9 473L677.6 473.8 667 483.3C665.5 484.9 665.8 487.1 666.5 488.3 668.1 489.8 670.2 489.5 672.1 488.5L687.2 474.2 711.1 474.9 675.9 507.6C674.4 509.2 674.1 511.7 675.4 512.6 677 514.1 678.9 514.7 680.4 513.1Z" fill="rgba(51, 121, 194, 0.58)"></path><path d="M1211.9 457.5L1231.7 487.3 1230 497.1 1209.1 504.2 1201.4 497.7 1199.2 461.8C1199.1 461.4 1199.1 461.4 1198.9 461 1198.6 460.2 1197.9 459.5 1196.6 459.5 1195.3 459.9 1194.7 460.6 1194.7 462L1196.7 493.3 1185 483.1 1183.9 469.3C1183.9 469.3 1183.8 468.9 1183.8 468.9 1183.5 468.1 1182.8 467.4 1181.4 467.4 1180.5 467.3 1179.5 468.5 1179.5 469.9L1179.9 478.9 1171.3 471.3C1170.6 470.6 1169.2 470.6 1168.2 471.5S1167.6 473.9 1168.5 475L1176.9 482.2 1168 483C1166.6 483 1165.6 484.2 1165.7 485.6 1165.9 486.4 1166.8 487.5 1168.1 487.5L1182 486.5 1193.8 497.1 1162.5 499.1C1161.1 499.1 1160.1 500.3 1160 501.3 1160.4 502.5 1161.3 503.6 1162.6 503.6L1198.4 501 1206.2 507.9 1202 529.1 1192.2 532.4 1159.8 516.9C1158.7 516.4 1157.5 516.8 1157 517.9S1156.9 520.2 1158 520.7L1186.4 534.4 1171.2 539.6 1159.1 533.6C1158 533.1 1156.8 533.5 1155.9 534.7S1155.7 537.1 1156.8 537.6L1165.5 541.5 1154.4 545.3C1153.2 545.7 1152.8 547.2 1153.2 548.5 1153.6 549.7 1154.7 550.2 1156 549.8L1167 546 1163 554.3C1162 555.5 1162.5 556.8 1164 557.2 1165.1 557.7 1166.3 557.3 1166.8 556.2L1172.8 544.1 1188 538.9 1173.8 567.1C1173.2 568.2 1173.8 569.8 1174.9 570.4S1177.2 570.5 1177.8 569.4L1193.7 536.9 1203.5 533.6 1220 548.1 1217.8 558 1188 577.8C1186.9 578.6 1186.9 580 1187.3 581.2 1188.1 582.3 1189.5 582.3 1190.7 581.9L1216.8 564.3 1213.7 579.6 1202.1 587.2C1201 588 1201.1 589.4 1201.5 590.6 1202.2 591.3 1203.7 591.7 1204.8 590.9L1212.3 586 1210.2 597.3C1210 598.2 1210.9 599.3 1212 599.8 1213.3 599.8 1214.4 599 1214.5 598L1216.7 586.8 1222.1 594.6C1222.7 595.2 1224.3 595.6 1224.9 595 1226.2 594.5 1226.3 593.6 1225.9 592.3 1225.9 592.3 1225.7 591.9 1225.7 591.9L1218.1 580.3 1221.2 565.1 1238.8 591.2C1239.6 592.2 1240.7 592.8 1241.8 592 1242.9 591.1 1243 590.2 1242.7 589.3 1242.6 588.9 1242.6 588.9 1242.6 588.9L1222.2 558.8 1224.3 548.9 1245.3 541.8 1252.6 548.4 1255.3 584.6C1255.2 585.6 1256.4 586.5 1257.4 586.6 1258.7 586.6 1259.7 585.4 1259.7 584L1257.7 552.7 1269.4 562.8 1270.4 576.7C1270.5 578.1 1271.3 579.1 1272.5 578.7 1273.9 578.7 1274.8 577.5 1275 576.5L1274.1 567.2 1282.6 574.8C1283.7 575.4 1285.1 575.3 1286.2 574.5 1286.5 574 1286.6 573 1286.3 572.2 1286.2 571.8 1286.2 571.8 1285.6 571.5L1277.1 563.9 1286.4 563C1287.8 563 1288.3 561.9 1288.4 560.9 1288.3 560.5 1288.3 560.5 1288.1 560.1 1287.9 559.3 1287.2 558.6 1286.2 558.5L1272.4 559.5 1260.7 549.3 1292 547.3C1293.3 546.9 1294.3 546.1 1293.9 544.9 1294.2 544.3 1294.2 544.3 1294.1 543.9 1293.8 543.1 1292.7 542.5 1291.7 542.4L1255.6 545.1 1248.2 538.5 1252.3 516.9 1261.8 513.7 1294.2 529.6C1295.3 530.2 1297 529.6 1297.5 528.5S1297.5 525.8 1296.4 525.2L1267.9 511.6 1282.7 506.6 1295.2 512.4C1296.3 512.9 1297.5 512.5 1298.1 511.4 1298.6 510.3 1298.2 509.1 1297.1 508.5L1288.8 504.5 1299.9 500.7C1300.7 500.4 1301.7 499.2 1301.3 497.9 1300.8 496.7 1299.2 495.9 1298.4 496.2L1287.3 500 1291.4 491.7C1291.6 491.2 1291.9 490.6 1291.8 490.2 1291.5 489.4 1290.9 489.1 1290.4 488.8 1289.3 488.3 1288 488.7 1287.5 489.8L1281.2 502.1 1266.4 507.1 1280.6 478.9C1280.8 478.4 1280.7 477.9 1280.4 477.1 1280.3 476.7 1280.1 476.3 1279.6 476 1278.5 475.5 1276.9 476.1 1276.3 477.2L1260.2 509.2 1250.8 512.4 1234.5 498.3 1236.1 488.1 1266.4 468.2C1267.1 467.5 1267.6 466.4 1267.3 465.6 1267.2 465.2 1267.2 465.2 1266.8 465.3 1266.4 464.1 1264.8 463.7 1263.8 464.5L1237.7 482.1 1240.6 466.4 1252.2 458.8C1252.9 458.1 1253 457.2 1252.7 456.4 1252.7 456.4 1252.6 455.9 1252.6 455.9 1252.2 454.7 1250.7 454.3 1249.6 455.1L1241.8 460.5 1243.9 449.3C1244.2 448.7 1244 448.3 1243.9 447.9 1243.6 447.1 1242.9 446.4 1242.5 446.6 1241 446.2 1239.9 447 1239.4 448.1L1237.3 459.3 1232.4 451.8C1231.6 450.7 1230.1 450.3 1229 451.2 1228.3 451.9 1227.9 453.4 1228.6 454.1L1236.2 465.7 1233.2 480.9 1215.6 454.8C1214.8 453.7 1213.4 453.8 1212.2 454.2 1211.5 454.9 1211.1 456.4 1211.9 457.5ZM1213.1 507.9L1229.1 502.4 1231.5 501.6 1233.5 503.2 1245.9 514.1 1248 516.1 1247.4 518.6 1244.2 534.8 1243.7 537.3 1241.3 538.1 1225.3 543.6 1222.8 544.4 1220.9 542.8 1208.5 531.9 1206.5 530.3 1206.9 527.4 1210.1 511.2 1210.6 508.7 1213.1 507.9Z" fill="rgba(51, 121, 194, 0.58)"></path><path d="M558 66.7L558.5 102.5 551.7 109.8 530.3 104.4 527.4 94.7 545 63.4C545.1 63 545.1 63 545.2 62.6 545.4 61.7 545.2 60.8 544.1 60.1 542.8 59.7 541.9 59.9 541.1 61.1L525.8 88.5 521.5 73.6 528.1 61.4C528.1 61.4 528.2 61 528.2 61 528.4 60.2 528.2 59.2 527 58.5 526.3 57.8 524.8 58.4 524.1 59.5L519.5 67.3 516.4 56.3C516.2 55.3 515.1 54.6 513.7 54.7S511.9 56.5 512 57.8L515.2 68.5 507.3 64.3C506.1 63.5 504.7 64 503.9 65.2 503.7 66 503.8 67.4 505 68.1L517.2 74.8 521.4 90.1 493.9 74.8C492.8 74 491.3 74.6 490.7 75.3 490.4 76.5 490.5 77.9 491.6 78.7L523 95.9 525.9 106 510.9 121.4 500.8 118.9 482.1 88.3C481.4 87.3 480.2 87 479.1 87.6S477.8 89.5 478.4 90.5L494.9 117.4 479.3 113.5 472.4 102C471.8 100.9 470.5 100.6 469 101.1S467.7 103 468.3 104.1L473.4 112.1 462.1 109.2C460.8 108.9 459.7 110 459.4 111.2 459 112.5 459.7 113.5 460.9 113.9L472.3 116.7 464.4 121.4C462.9 122 462.6 123.2 463.7 124.4 464.3 125.4 465.6 125.7 466.6 125.1L478.2 118.2 493.7 122.1 466.5 138C465.5 138.7 465 140.3 465.7 141.4S467.6 142.8 468.6 142.1L499.6 123.5 509.7 126.1 515.6 147.2 508.4 154.3 472.6 154.7C471.2 154.8 470.5 156 470.2 157.3 470.3 158.6 471.4 159.4 472.7 159.7L504.1 159.1 493.3 170.2 479.4 170.3C478.1 170.4 477.3 171.6 477 172.8 477.2 173.8 478.3 174.9 479.6 174.8L488.6 174.8 480.7 183.1C480.1 183.9 480.2 185.2 480.8 186.3 481.9 187 483.3 186.9 483.9 186.2L491.8 177.9 492.1 187.3C492.4 188.3 493.4 189.4 494.3 189.2 495.6 189.5 496.2 188.8 496.6 187.5 496.6 187.5 496.7 187.1 496.7 187.1L496.6 173.2 507.4 162.1 508 193.5C508.1 194.9 508.7 195.9 510.1 195.8 511.5 195.7 512.1 195 512.3 194.2 512.4 193.7 512.4 193.7 512.4 193.7L511.7 157.4 518.8 150.2 540.3 155.6 542.8 165.2 525.5 197C524.8 197.7 525.4 199.2 526.1 199.8 527.2 200.6 528.7 200 529.5 198.9L544.8 171.5 549.1 186.4 542.5 198.6C541.7 199.7 541.9 201.1 543.1 201.4 544.3 202.1 545.7 201.6 546.4 200.9L550.7 192.6 553.7 203.6C554.4 204.7 555.5 205.4 556.9 205.3 557.4 205 558 204.2 558.2 203.4 558.4 203 558.4 203 558 202.5L555 191.4 563.3 195.7C564.4 196.5 565.5 195.8 566.1 195.1 566.2 194.7 566.2 194.7 566.3 194.3 566.6 193.4 566.3 192.5 565.6 191.8L553.4 185.2 549.1 170.3 576.5 185.6C577.8 186 579.2 185.9 579.5 184.6 580 184.3 580 184.3 580.1 183.9 580.3 183 579.7 182 579 181.3L547.1 164 544.6 154.4 559.7 138.6 569.4 141 588 172C588.6 173 590.3 173.5 591.4 172.8S592.8 170.5 592.2 169.5L575.7 142.6 590.8 146.3 598.2 158C598.8 159.1 600.1 159.4 601.1 158.7 602.2 158.1 602.5 156.9 601.9 155.8L597.1 147.9 608.5 150.8C609.3 151 610.8 150.4 611.1 149.2 611.4 147.9 610.5 146.3 609.6 146.1L598.3 143.3 606.2 138.6C606.7 138.3 607.2 137.9 607.3 137.5 607.5 136.7 607.2 136.1 606.9 135.6 606.3 134.6 605 134.3 604 134.9L592 141.7 576.9 137.9 604.1 122C604.6 121.6 604.7 121.2 604.9 120.4 605 120 605.1 119.5 604.8 119 604.2 118 602.5 117.5 601.4 118.2L570.5 136.4 560.9 133.9 554.9 113.2 561.7 105.6 598 105.2C598.9 105 600 104.4 600.2 103.6 600.3 103.1 600.3 103.1 599.9 103 600.2 101.8 599.1 100.6 597.8 100.7L566.3 101.4 577.3 89.8 591.2 89.7C592.1 89.5 592.7 88.7 592.9 87.9 592.9 87.9 593 87.5 593 87.5 593.4 86.2 592.3 85.1 590.9 85.2L581.5 85.5 589.4 77.2C589.9 76.9 590 76.5 590.1 76 590.3 75.2 590.1 74.2 589.7 74.1 588.6 73 587.3 73.1 586.2 73.7L578.3 82 578.3 73.1C578.2 71.7 577.2 70.6 575.8 70.7 574.9 70.9 573.7 71.9 573.9 72.9L574 86.8 563.2 97.9 562.6 66.5C562.5 65.1 561.3 64.4 560 64 559.1 64.3 557.9 65.3 558 66.7ZM531.7 109.7L548.1 113.8 550.6 114.4 551.3 116.8 555.8 132.7 556.5 135.5 554.7 137.3 543.2 149.2 541.4 151 538.9 150.3 522.5 146.2 520 145.6 519.3 143.2 514.7 127.3 514 124.9 515.9 122.7 527.4 110.8 529.1 109 531.7 109.7Z" fill="rgba(51, 121, 194, 0.58)"></path><path d="M476.7 483.7L441.8 461.2 438.9 446.3 450.6 453.9C451.7 455.1 453.2 454.4 454.3 453.4 454.8 452.3 454.5 450.5 453.4 450L437.4 439.3 434.1 424.7 448.2 429.5 456.9 446.9C456.9 446.9 457.2 447.3 457.2 447.3 457.9 448.1 459.4 448.1 460.5 447.8 461.7 446.8 462.1 445.7 461.4 444.2L455.1 431.7 469.2 436.5 488.3 473.2C488.3 473.2 488.2 473.9 488.2 473.9 488.9 474.7 490.4 474.8 491.5 474.5 493 473.8 493.5 472 492.5 470.9L476.1 438.7 493.5 444 500.8 458.4C500.8 458.4 500.8 458.4 501.2 458.8 501.9 459.6 503 460 504.1 459.7 505.2 458.6 506.1 457.2 505.4 455.7L500.4 446.2 513.1 450.2C514.5 451 515.6 450 516.1 448.9 516.9 447.5 516.2 446 514.4 445.5L502.1 441.2 511.5 436.9C512.7 435.8 513.5 434.4 512.5 433.2 511.8 431.7 510.7 431.3 509.2 432L494.8 439.3 477.8 433.6 510.4 416.9C511.5 416.6 512 414.8 511.3 413.3 510.6 412.5 509.2 411.7 507.7 412.4L471 431.4 456.8 426.7 469.3 420.3C470.8 419.7 470.9 418.2 470.3 416.7 469.9 415.6 468.1 415.1 467 415.4L450 424.5 435.5 420 446.7 409.9 465.8 410.9C467.2 411 468.4 410 468.5 408.5 468.9 407.4 467.5 405.9 466 405.8L452.1 405 463.3 395 504.8 397.5C506.2 397.6 507.4 396.5 507.5 395.1 507.5 393.6 506.5 392.4 505 392.4L468.7 390.1 481.8 378.3 498 379.1C499.5 379.2 500.6 378.1 500.7 376.7 500.8 375.2 499.7 374 498.3 374L487.6 373 497.3 364.3C498.4 363.3 498.5 361.8 497.5 360.7 496.4 359.5 495 359.4 493.8 360.5L484.1 369.2 484.7 358.9C484.8 357.4 483.7 356.3 482.2 356.2S479.6 357.1 479.5 358.6L478.7 374 465.2 386.2 467.1 350.2C467.2 348.8 466.1 347.6 464.7 347.5 463.2 347.5 462 348.5 462 350L459.8 391.1 448.6 401.2 449.3 387.2C449.4 385.8 448.4 384.6 446.9 384.5 445.4 384.5 444.3 385.5 444.2 387L443.2 406.1 432.4 415.8 429.4 401.7 439.9 385.3C440.3 384.2 440 382.3 438.9 381.9 437.5 381.1 436.4 381.4 435.2 382.4L427.6 394.2 424.7 380.1 447.1 345.1C447.9 343.7 447.6 342.6 446.6 341.4 445.1 340.6 443.6 341.3 442.9 342L422.8 372.6 419.4 354.7 427.8 341.6C428.9 340.5 428.3 339 427.2 337.8 426.2 337.4 424.3 337.7 423.5 339.1L417.9 347.7 414.9 335C414.9 333.5 413.5 332.7 411.7 333 410.5 333.3 409.7 334.7 410 335.8L412.7 348.9 403.8 342.9C402.3 342.1 400.8 342.7 400.4 343.8 399.3 344.9 399.6 346 400.3 346.7 400.6 347.1 400.6 347.1 401 347.5L414.1 355.9 417.6 373.8 387.4 354.2C386.3 353 384.8 353.7 383.6 354.7 383.2 355.8 383.5 356.9 384.2 357.7 384.6 358.1 384.6 358.1 384.6 358.1L419.4 381.3 422.4 395.4 410.6 387.8C409.2 387 408.1 387.3 406.9 388.3 406.5 389.4 406.4 390.9 407.1 391.7 407.5 392 407.5 392 407.8 392.4L424.2 402.9 427.2 417 413.4 412.6 404.3 395.6C403.7 394.1 401.9 393.6 400.7 393.9 399.6 394.9 398.8 396.4 399.8 397.5L406.2 410 392 406 373 368.5C372.7 367.4 370.9 366.9 369.7 367.2 368.6 368.3 367.8 369.7 368.4 371.2L384.8 403.4 367.8 397.7 360.8 383.7C360.1 382.2 358.3 381.7 357.1 382.8 356 383.1 355.2 384.5 355.9 386L360.9 395.5 348.2 391.5C347.1 391.1 345.6 391.8 344.8 393.2 344.8 393.9 345.1 395 345.8 395.8 345.8 395.8 346.1 396.2 346.5 396.6L359.2 400.6 349.7 405.6C348.6 405.9 348.1 407.7 348.4 408.8 348.8 409.2 348.8 409.2 348.8 409.2 349.8 410.4 351.3 410.5 352.1 409.8L366 402.8 383.4 408.1 350.9 424.8C349.7 425.8 349.3 426.9 350 428.4 350 428.4 350.3 428.8 350.3 428.8 351 429.6 352.1 430 353.6 429.4L390.7 410.7 404.4 415.1 391.9 421.4C390.8 422.5 390 423.9 391 425.1 390.6 425.4 391 425.8 391 425.8 391.7 426.6 393.1 426.6 394.3 426.3L411.3 417.3 425.4 422.1 414.6 431.8 395.5 430.8C394 430.7 392.5 432.1 392.4 433.6 392.7 434.7 393.8 435.9 394.8 436.3L409.2 436.7 398 446.8 356.9 444.6C355.4 444.6 354.2 445.6 354.2 447.1 354.1 448.5 355.1 449.7 356.6 449.8L392.6 451.6 379.1 463.8 363.6 463C362.2 462.9 361 464 360.9 465.5S361.9 468.1 363.4 468.2L373.6 468.7 364 477.4C362.8 478.4 362.7 479.9 363.8 481.1 364.8 482.2 366.3 482.3 367.5 481.3L377.1 472.6 376.9 483.2C376.9 484 376.9 484.7 377.2 485.1 377.6 485.5 378.6 485.9 379.4 485.9 380.8 486 382 485 382.1 483.5L382.5 467.7 396.1 455.5 394.5 491.9C394.5 492.6 394.4 493.4 394.8 493.7 395.1 494.1 396.2 494.5 397 494.6 398.4 494.7 399.6 493.6 399.7 492.2L401.5 450.6 412.7 440.5 411.6 454.8C411.5 455.6 412.2 456.4 412.6 456.7 412.9 457.1 413.3 457.5 414 457.6 415.5 457.6 417 456.2 416.7 455.1L418.1 435.7 428.9 425.9 432.2 440.5 421.4 456.5C421 457.5 420.9 459 421.6 459.8 422 460.2 422 460.2 422.3 459.8 423.4 461 425.2 460.7 426 459.3L433.7 447.5 437 462.1 413.8 496.9C413.3 498 413.7 499.1 414.4 499.9 414.7 500.3 414.7 500.3 414.7 500.3 416.1 501.1 417.6 501.2 418.4 499.8L438.4 469.1 441.9 487 433.5 500.2C432.7 501.6 433 502.7 433.7 503.5 433.7 503.5 434 503.9 434 503.9 435.5 504.7 437 504 437.7 503.3L443.4 494.1 446 507.1C446.4 507.5 446.7 507.9 447.1 508.2 447.4 508.6 448.5 509.1 449.2 509.1 450.7 508.4 451.9 507.4 451.2 505.9L448.6 492.9 457.5 498.9C458.9 499.7 460.4 499 461.2 498.3 462 496.9 461.4 495.4 460.3 494.2L447.1 485.8 443.3 468.3 473.5 487.9C475 488.7 476.8 488.4 477.2 487.4 478 485.9 478.1 484.5 476.7 483.7Z" fill="rgba(51, 121, 194, 0.58)"></path><path d="M189.5 60.2L194.5 74.5 185.5 73.2C184.5 73 183.4 73.7 182.9 75 183 76.2 183.7 77.4 184.9 77.2L196.2 79.3 200.6 90.2 177.1 86C175.9 86.1 174.8 86.8 174.5 87.8 174.4 89.3 175.1 90.5 176.3 90.4L202.3 95 208.5 112 188.6 106.1 198 124.7 180.2 121.7 170.8 97C171.1 96.7 170.7 96.4 170.4 96.2 169.7 95.6 168.8 95.4 167.9 95.8 167 96.2 166.5 97.4 166.6 98.7L175.2 120.9 163.6 118.6 159.5 107.9C159.4 107.3 159.1 107.1 158.8 106.8 158.4 106.5 157.5 106.3 156.6 106.7 155.7 107.1 155.2 108.3 155.6 109.2L158.6 117.9 143.6 115.6C142.3 115.1 141.5 116.1 141 117.4 140.8 118.3 141.5 119.5 143.1 119.6L157.8 122.3 152 129.3C151.1 130.3 151.6 131.8 152.2 132.3 153.2 133.2 154.5 133 155.3 132L162.8 123 174.4 125.3 159.4 143.3C158.6 144.3 158.7 145.6 159.7 146.4 160.4 146.9 161.9 147.1 162.8 146.1L179.4 126.1 197.2 129 182.5 143.3 202.9 144.5 191.3 158.5 165.7 154.1C164.1 154 163.3 155 163.1 155.9 162.9 156.9 163.6 158 164.9 158.5L188.3 162.2 180.8 171.2 169.3 169.5C168 169 166.8 169.7 166.7 171.3 166.4 172.2 167.2 173.4 168.7 173.6L177.5 175.2 167.8 186.9C167 187.9 167.1 189.1 168.1 189.9S170.3 190.6 171.2 189.6L180.8 178 184.1 186.3C184.5 187.8 185.8 188.3 186.7 187.9 188.2 187.4 188.7 186.2 188 185L184.2 174 191.6 164.9 199.6 187.3C200.3 188.4 201.6 188.9 202.4 188.6 203.9 188.1 204.4 186.8 203.7 185.7L194.7 161.3 206.3 147.3 211.2 167.1 222.5 150.1 228.7 167 212.2 187C211.3 188 211.8 189.5 212.4 190.1 213.4 190.9 214.7 190.8 215.5 189.8L230.7 171.4 234.8 182.8 227.4 191.8C226.5 192.8 226.7 194 227.7 194.8 228.3 195.4 229.9 195.5 230.7 194.5L236.5 187.5 241.8 201.5C242.3 203 243.5 203.5 244.7 202.8 245.6 202.4 246.4 201.4 245.7 200.2L240.7 185.9 249.7 187.2C250.7 187.4 251.8 186.7 252 185.8 252.3 184.8 251.9 183.9 251.5 183.7 251.2 183.4 250.9 183.1 250.3 183.2L239 181.1 234.6 170.2 258.1 174.4C259.3 174.3 260.4 173.6 260.7 172.6 260.9 171.7 260.5 170.8 259.8 170.3 259.5 170 259.5 170 258.9 170L232.9 165.4 226.7 148.4 246.6 154.3 237.2 135.8 255 138.7 264.4 163.4C264.8 164.3 265.8 165.1 267.3 164.6 268.2 164.2 268.7 163 268.6 161.7L260 139.5 271.6 141.8 275.7 152.5C275.8 153.7 277.1 154.2 278.6 153.7 279.5 153.3 280 152.1 279.9 150.8L276.6 142.5 291.6 144.8C292.9 145.3 293.7 144.3 294.2 143 294.1 142.4 293.8 141.5 293.4 141.3 293.1 141 292.8 140.7 292.1 140.8L277.4 138.1 283.2 131.1C284.1 130.1 283.6 128.6 283 128.1L283 128.1C282 127.3 280.7 127.4 279.9 128.4L272.4 137.4 260.8 135.1 275.8 117.1C276.6 116.1 276.5 114.8 275.5 114S273.3 113.3 272.4 114.3L255.8 134.3 238 131.4 252.7 117.1 232.3 115.9 243.9 101.9 269.5 106.3C271.1 106.4 271.9 105.4 272.1 104.5 272.3 103.5 271.6 102.4 270.3 101.9L247.2 97.9 254.4 89.2 265.9 90.9C267.2 91.4 268.4 90.7 268.5 89.1 268.8 88.2 268 87 266.8 86.5L257.7 85.2 267.4 73.5C268.2 72.5 268.1 71.3 267.1 70.5S264.9 69.8 264 70.8L254.4 82.4 251.1 74.1C251.1 73.5 250.7 73.2 250.4 73 249.7 72.4 249.1 72.5 248.5 72.5 247 73 246.5 74.3 247.2 75.4L251.1 86.4 243.6 95.5 235.6 73.1C235.3 72.8 235 72.6 234.6 72.3 234 71.7 233.4 71.8 232.8 71.8 231.3 72.3 230.8 73.6 231.5 74.7L240.5 99.1 228.9 113.1 224 93.3 212.7 110.4 206.5 93.4 223.1 73.4C223.9 72.4 223.4 70.9 222.8 70.3 221.8 69.5 220.5 69.6 219.7 70.6L204.8 88.6 200.4 77.7 207.8 68.6C208.7 67.6 208.6 66.4 207.6 65.6S205.3 64.9 204.5 65.9L198.7 72.9 193.4 58.9C193.3 58.3 193 58 192.7 57.8 192.3 57.5 191.4 57.3 190.5 57.6 189.6 58 188.8 59 189.5 60.2ZM222.2 103.6L226.2 119.9 242.9 120.8 230.8 132.7 238.3 147.3 222.2 143 213 156.8 209 140.5 192.3 139.6 204.2 128.1 196.9 113.1 212.7 117.7 222.2 103.6Z" fill="rgba(51, 121, 194, 0.58)"></path><path d="M1485.5 266.8L1506 285.4 1506.3 295.5 1499.4 289.2C1498.8 288.3 1497.7 288.6 1496.9 289.2 1496.5 289.8 1496.4 291.1 1497.1 291.5L1506.5 300.3 1507 310.2 1498.3 305.5 1494.5 293.2C1494.5 293.2 1494.3 292.9 1494.3 292.9 1493.9 292.3 1493 292.1 1492.2 292.2 1491.3 292.7 1490.9 293.4 1491.2 294.4L1494 303.3 1485.2 298.7 1476.7 272.4C1476.7 272.4 1476.8 271.9 1476.8 271.9 1476.4 271.4 1475.5 271.2 1474.7 271.2 1473.7 271.5 1473.1 272.6 1473.7 273.5L1480.9 296.5 1470.1 291 1466.8 280.8C1466.8 280.8 1466.8 280.8 1466.6 280.5 1466.3 279.9 1465.6 279.5 1464.8 279.6 1464 280.2 1463.3 281 1463.5 282.1L1465.8 288.8 1457.9 284.8C1457.1 284.2 1456.2 284.7 1455.8 285.4 1455.1 286.2 1455.4 287.3 1456.5 287.8L1464.1 292 1457.4 293.8C1456.6 294.3 1455.9 295.2 1456.4 296.1 1456.7 297.1 1457.4 297.5 1458.4 297.3L1468.7 294 1479.3 299.6 1456 307C1455.3 307.1 1454.8 308.2 1455 309.3 1455.4 309.9 1456.2 310.6 1457.3 310.3L1483.5 301.8 1492.3 306.5 1483.4 309.3C1482.3 309.6 1482.1 310.5 1482.4 311.6 1482.5 312.4 1483.6 312.9 1484.4 312.8L1496.6 308.7 1505.6 313.2 1497.1 318.6 1484.7 315.9C1483.7 315.6 1482.9 316.2 1482.7 317.2 1482.3 317.8 1483 319 1484 319.2L1493.1 321.2 1484.6 326.6 1457.6 320.4C1456.6 320.2 1455.8 320.8 1455.5 321.7 1455.3 322.7 1455.9 323.6 1456.8 323.8L1480.5 329.2 1470.6 335.6 1460 333.3C1459.1 333 1458.2 333.6 1458 334.6 1457.8 335.5 1458.3 336.4 1459.3 336.6L1466.2 338.4 1458.9 343C1458 343.6 1457.8 344.6 1458.3 345.4 1458.9 346.3 1459.9 346.5 1460.7 346L1468 341.3 1466.6 348C1466.4 349 1466.9 349.8 1467.9 350.1S1469.7 349.7 1469.9 348.7L1472.1 338.7 1482.4 332.2 1477.2 355.6C1477 356.6 1477.5 357.5 1478.5 357.7 1479.4 357.9 1480.3 357.3 1480.5 356.4L1486.5 329.6 1494.9 324.1 1492.9 333.2C1492.7 334.2 1493.3 335.1 1494.2 335.3 1495.2 335.5 1496.1 334.9 1496.3 334L1499 321.5 1507.2 316.3 1507.6 325.9 1498.9 335.6C1498.5 336.2 1498.5 337.5 1499.2 337.9 1500 338.6 1500.8 338.5 1501.7 337.9L1508 331 1508.4 340.7 1489.8 361.2C1489.1 362 1489.2 362.8 1489.7 363.7 1490.6 364.3 1491.6 364.1 1492.2 363.7L1508.7 345.8 1509.1 357.9 1502.1 365.6C1501.2 366.2 1501.5 367.3 1502 368.1 1502.7 368.5 1504 368.6 1504.6 367.7L1509.3 362.7 1509.9 371.4C1509.6 372.3 1510.5 373 1511.8 373 1512.5 373 1513.2 372.1 1513.1 371.3L1512.8 362.5 1518 367.4C1518.9 368.1 1519.9 367.8 1520.3 367.1 1521.2 366.6 1521.1 365.8 1520.8 365.2 1520.6 364.9 1520.6 364.9 1520.4 364.6L1512.6 357.7 1512.3 345.5 1530.1 361.8C1530.6 362.6 1531.7 362.4 1532.6 361.8 1532.9 361.1 1532.9 360.4 1532.5 359.8 1532.3 359.5 1532.3 359.5 1532.3 359.5L1511.9 340.4 1511.5 330.8 1518.4 337.1C1519.3 337.8 1520 337.7 1520.9 337.2 1521.3 336.5 1521.5 335.5 1521.2 334.9 1521 334.7 1521 334.7 1520.8 334.4L1511.1 325.7 1510.8 316.1 1519.3 320.5 1523.4 332.7C1523.7 333.7 1524.8 334.3 1525.6 334.2 1526.5 333.6 1527.2 332.8 1526.6 331.9L1523.8 323 1532.7 327.2 1541.1 353.9C1541.2 354.7 1542.3 355.2 1543.1 355.1 1543.9 354.5 1544.6 353.7 1544.4 352.6L1537.1 329.7 1547.7 335.3 1550.8 345.2C1551 346.3 1552.2 346.8 1553.1 346.3 1553.8 346.2 1554.5 345.3 1554.2 344.3L1552 337.5 1559.9 341.5C1560.5 341.9 1561.6 341.6 1562.3 340.8 1562.4 340.3 1562.3 339.5 1561.9 338.9 1561.9 338.9 1561.8 338.6 1561.6 338.3L1553.7 334.3 1560.4 332.1C1561.2 332 1561.7 330.8 1561.6 330.1 1561.5 329.8 1561.5 329.8 1561.5 329.8 1560.9 328.9 1559.9 328.7 1559.4 329.1L1549.4 332.1 1538.5 326.7 1561.8 319.3C1562.6 318.7 1563 318.1 1562.8 317 1562.8 317 1562.6 316.7 1562.6 316.7 1562.2 316.1 1561.5 315.7 1560.5 316L1534.1 324.2 1525.5 319.8 1534.4 317C1535.3 316.5 1536 315.6 1535.4 314.7 1535.7 314.6 1535.5 314.3 1535.5 314.3 1535.1 313.7 1534.2 313.5 1533.4 313.6L1521.2 317.6 1512.5 312.9 1520.6 307.7 1533.1 310.5C1534 310.7 1535.2 309.9 1535.4 309 1535.3 308.2 1534.8 307.3 1534.1 306.9L1524.7 305.1 1533.2 299.7 1560 305.6C1561 305.8 1561.8 305.3 1562.1 304.3 1562.3 303.3 1561.7 302.5 1560.7 302.3L1537.3 297.1 1547.5 290.6 1557.6 292.8C1558.5 293 1559.4 292.4 1559.6 291.5S1559.3 289.6 1558.3 289.4L1551.6 287.9 1558.9 283.3C1559.8 282.7 1560 281.8 1559.4 280.9 1558.9 280 1557.9 279.8 1557 280.4L1549.7 285 1551 278C1551.1 277.5 1551.2 277.1 1551.1 276.8 1550.9 276.5 1550.2 276.1 1549.7 276 1548.8 275.8 1547.9 276.3 1547.7 277.3L1545.7 287.6 1535.4 294.2 1540.4 270.4C1540.5 269.9 1540.6 269.5 1540.4 269.2 1540.3 268.9 1539.6 268.5 1539.1 268.4 1538.1 268.2 1537.3 268.7 1537.1 269.7L1531.3 296.8 1522.9 302.2 1525.2 292.9C1525.3 292.4 1524.9 291.8 1524.7 291.5 1524.5 291.3 1524.3 291 1523.9 290.9 1522.9 290.6 1521.7 291.4 1521.8 292.2L1518.8 304.8 1510.6 310 1510 300.1 1518.9 290.8C1519.3 290.1 1519.5 289.1 1519.1 288.6 1518.9 288.3 1518.9 288.3 1518.6 288.4 1518.1 287.6 1516.8 287.5 1516.1 288.4L1509.8 295.3 1509.2 285.4 1528.3 265C1528.7 264.3 1528.6 263.5 1528.3 263 1528.1 262.7 1528.1 262.7 1528.1 262.7 1527.2 262 1526.3 261.8 1525.6 262.6L1509.1 280.6 1508.7 268.4 1515.7 260.7C1516.4 259.8 1516.3 259.1 1515.9 258.5 1515.9 258.5 1515.7 258.2 1515.7 258.2 1514.9 257.5 1513.8 257.8 1513.2 258.1L1508.5 263.6 1508.2 254.8C1508 254.5 1507.8 254.2 1507.7 253.9 1507.5 253.6 1506.8 253.2 1506.3 253.1 1505.3 253.4 1504.4 253.9 1504.7 255L1505 263.8 1499.8 258.9C1498.9 258.2 1497.9 258.5 1497.3 258.9 1496.6 259.7 1496.8 260.8 1497.4 261.7L1505.2 268.7 1505.8 280.6 1488 264.4C1487.2 263.7 1485.9 263.7 1485.5 264.3 1484.8 265.2 1484.6 266.1 1485.5 266.8Z" fill="rgba(51, 121, 194, 0.58)"></path><path d="M1394.2 233.4L1358.3 236.4 1334 215.6 1364.2 204.9 1396.6 220.7C1396.6 220.7 1397 220.7 1397 220.7 1397.8 220.9 1398.8 220.2 1399.4 219.4 1400.1 218.2 1399.5 216.8 1398.2 216.6L1369.9 202.9 1384.5 197.7 1397.1 203.6C1397.1 203.6 1397.5 203.6 1397.5 203.6 1398.4 203.8 1399.4 203.1 1400 202.3 1400.6 201.1 1400 199.7 1398.8 199.5L1390.3 195.2 1401.1 191.5C1402 191.3 1402.8 189.6 1402.5 188.7 1402.3 187.3 1400.6 187 1399.7 187.3L1388.9 191 1393.1 182.5C1393.8 181.3 1393.2 179.9 1391.9 179.7 1390.7 179 1389.2 179.6 1389 180.9L1383.1 193.5 1368.6 198.2 1382.2 169.9C1382.9 168.7 1382.3 167.3 1381 167 1379.8 166.4 1378.4 167 1378.1 168.3L1362.4 200.6 1332.2 211.3 1338.2 179.3 1368 158.9C1369 158.2 1369.2 156.9 1368.5 155.9 1367.8 154.9 1366.6 154.7 1365.6 155.3L1339.3 173.4 1342.1 158 1353.3 150.4C1354.3 149.7 1354.5 148.4 1353.8 147.4 1353.1 146.4 1351.8 146.2 1350.8 146.9L1343.3 152.1 1345.5 140.1C1346.1 138.9 1345 137.8 1343.8 137.6 1342.5 137.4 1341.5 138.1 1341.2 139.3L1339.2 150.4 1334 142.8C1333.3 141.8 1332 141.6 1331 142.3S1329.7 144.2 1330.4 145.2L1338 156.4 1335.2 171.7 1317.2 145.4C1316.5 144.4 1315.2 144.2 1314.2 144.9 1313.2 145.5 1312.9 146.8 1313.6 147.8L1334.1 177.7 1328.2 209.2 1303.8 188.3 1301.1 153.4C1300.9 152.1 1299.7 151.4 1298.5 151.2 1297.1 151.4 1296.4 152.6 1296.2 153.8L1298.7 185.2 1286.9 175 1286 161.2C1285.8 159.8 1284.6 159.2 1283.3 158.9 1282 159.1 1281.3 160.3 1281.2 161.2L1282 170.6 1273.3 163.2C1272.5 162.6 1270.8 162.3 1270.1 163.5 1269.5 164.7 1269.2 166 1270.4 166.7L1279.2 174 1269.8 174.9C1268.4 175.1 1267.7 176.3 1267.6 177.1 1267.9 178.1 1268.5 179.1 1269.4 179.2 1269.4 179.2 1269.8 179.3 1269.8 179.3L1283.7 178.4 1295.4 188.5 1264.1 191C1262.7 191.2 1262.1 192.4 1261.9 193.3 1262.2 194.2 1262.9 195.2 1263.7 195.4 1263.7 195.4 1264.2 195.5 1264.2 195.5L1300 192.5 1324.3 213.3 1294.1 224 1261.8 208.2C1260.6 207.6 1259.1 208.2 1258.9 209.5 1258.2 210.7 1258.8 212.1 1260.1 212.3L1288.4 226 1273.8 231.2 1261.2 225.3C1260 224.7 1258.6 225.3 1258.3 226.6 1257.7 227.8 1258.3 229.2 1259.6 229.4L1268 233.7 1257.2 237.4C1256.3 237.6 1255.5 239.3 1255.8 240.2 1256.1 241.1 1256.8 241.7 1257.7 241.9 1258.1 241.9 1258.5 242 1259 241.7L1269.9 238 1265.7 246.4C1265 247.6 1265.6 249.1 1266.9 249.3 1266.9 249.3 1267.3 249.4 1267.3 249.4 1268.2 249.5 1269.2 248.9 1269.8 248.1L1275.6 235.5 1290.3 230.3 1276.6 258.6C1275.9 259.8 1276.5 261.3 1277.8 261.5 1277.8 261.5 1278.3 261.6 1278.3 261.6 1279.1 261.7 1280.1 261 1280.7 260.3L1296.4 227.9 1326.6 217.3 1320.8 248.8 1290.9 269.2C1289.9 269.9 1289.7 271.2 1290.4 272.2 1291.1 273.2 1292.3 273.5 1293.3 272.8L1319.6 255.2 1316.7 270.5 1305.6 278.1C1304.6 278.8 1304.3 280.1 1305 281.1S1307 282.4 1308 281.7L1315.6 276.5 1313.5 287.6C1313.3 288.8 1314 289.9 1315.2 290.1 1316.5 290.3 1317.5 289.6 1317.8 288.4L1319.8 277.3 1325 284.9C1325.4 285.4 1325.7 285.9 1326.6 286S1327.9 285.9 1328.4 285.5C1329.5 284.8 1329.7 283.5 1329 282.5L1321.4 271.4 1324.2 256.1 1342.3 282.4C1342.6 282.9 1342.9 283.4 1343.8 283.5 1344.2 283.6 1345.2 283.3 1345.7 283 1346.7 282.3 1346.9 281 1346.2 280L1325.8 250.2 1331.7 218.7 1356 239.5 1359 275.3C1359.3 276.3 1360 277.3 1360.8 277.5 1360.8 277.5 1361.2 277.5 1361.2 277.5 1362.6 277.3 1363.3 276.1 1363.4 275.3L1360.9 244 1372.7 254.1 1373.6 267.9C1373.9 268.9 1374.6 269.9 1375.4 270 1375.4 270 1375.8 270.1 1375.8 270.1 1377.2 269.9 1377.9 268.7 1378 267.9L1377.1 258.5 1385.9 265.8C1386.3 265.9 1386.7 266.4 1387.1 266.5 1388 266.7 1388.9 266.4 1389.5 265.6 1390.1 264.4 1390.4 263.1 1389.2 262.5L1380.4 255.1 1389.8 254.2C1391.2 254 1391.9 252.8 1392 252 1391.8 250.6 1390.6 250 1389.8 249.8L1375.9 250.7 1364.2 240.6 1395.5 238.1C1396.9 237.9 1397.5 236.7 1397.7 235.9 1396.6 234.3 1395.5 233.2 1394.2 233.4Z" fill="rgba(51, 121, 194, 0.58)"></path><path d="M929.1 204.4L947.8 226.2 945.7 251.8 924.6 237.2 919.7 208.8C919.7 208.8 919.6 208.5 919.6 208.5 919.3 207.9 918.3 207.5 917.6 207.5 916.5 207.7 915.8 208.7 916.3 209.7L920.6 234.4 910.4 227.4 908.4 216.5C908.4 216.5 908.2 216.1 908.2 216.1 907.9 215.5 907 215.2 906.2 215.2 905.1 215.3 904.5 216.4 904.9 217.3L906.1 224.8 898.7 219.5C898.1 219 896.7 219.3 896.2 219.9 895.4 220.6 896 221.9 896.6 222.4L904.1 227.7 896.6 228.9C895.5 229 894.9 230.1 895.3 231 895.4 232.1 896.5 232.8 897.4 232.3L908.3 230.3 918.2 237.5 893.5 241.8C892.4 242 891.7 243 892.2 244 892.3 245.1 893.4 245.7 894.3 245.3L922.7 240.4 943.7 255 920.2 266.1 893 256.2C892.1 255.9 891.1 256.4 890.8 257.3 890.5 258.2 890.9 259.1 891.8 259.5L915.8 268.1 904.5 273.4 894.4 269.8C893.4 269.4 892.5 269.9 892.2 270.8 891.8 271.7 892.3 272.7 893.2 273L900.1 275.5 891.3 279.6C890.2 279.8 890.1 281 890.5 281.9 890.9 282.9 891.9 283.2 892.8 282.8L901 278.9 898.5 285.8C898.1 286.8 898.6 287.7 899.5 288S901.4 287.9 901.7 287L905.4 276.9 916.7 271.5 908 295.5C907.7 296.5 908.1 297.4 909 297.7 910 298.1 910.9 297.6 911.2 296.7L921 269.5 944.3 258.6 942.1 284.1 920.7 302.2C919.9 303 920.1 304 920.5 305 921.3 305.8 922.3 305.6 923.3 305.2L942.4 288.9 941.4 301.3 932.8 308.4C932 309.1 932.2 310.2 932.6 311.2 933.4 312 934.4 311.8 935.1 311.5L940.8 306.6 940.1 315.7C940.1 316.5 940.7 317.7 941.8 317.6 942.8 317.5 943.8 317 943.7 315.9L944.3 306.8 949.3 312.5C950.1 313.3 951.2 313.2 951.8 312.9 952.3 312.3 952.6 311.3 952.3 310.7 952.3 310.7 952.2 310.4 952.2 310.4L945.1 301.9 946.2 289.5 962.4 308.6C963.2 309.4 964.3 309.3 964.9 309 965.4 308.4 965.7 307.5 965.4 306.8 965.4 306.8 965.3 306.5 965.3 306.5L946.6 284.7 948.7 259.1 969.8 273.8 974.7 302.1C974.8 303.2 975.9 303.8 976.8 303.4 977.9 303.3 978.6 302.2 978.1 301.2L973.8 276.5 984 283.6 986 294.5C986.2 295.5 987.2 296.2 988.2 295.8 989.3 295.6 989.9 294.6 989.5 293.6L988.3 286.1 995.7 291.4C996.3 291.9 997.7 291.6 998.2 291 998.7 290.4 998.7 289.6 998.4 289 998.3 288.7 998.1 288.4 997.7 288.2L990.2 282.9 997.7 281.7C998.8 281.6 999.4 280.5 999 279.6 999 279.6 998.8 279.3 998.8 279.3 998.5 278.6 997.6 278.3 996.8 278.3L985.9 280.3 975.7 273.3 1000.5 268.9C1001.5 268.8 1002.2 267.7 1001.7 266.8 1001.7 266.8 1001.6 266.5 1001.6 266.5 1001.3 265.8 1000.4 265.5 999.6 265.5L971.3 270.4 950.2 255.8 973.4 244.8 1000.6 254.6C1001.6 255 1002.5 254.5 1002.8 253.6 1003.2 252.7 1002.7 251.7 1001.8 251.4L978.1 242.6 989.4 237.3 999.6 241C1000.5 241.3 1001.4 240.9 1001.8 239.9S1001.7 238.1 1000.7 237.7L993.8 235.3 1002 231.4C1002.9 231 1003.3 230.1 1002.8 229.1 1002.4 228.2 1001.4 227.8 1000.5 228.3L992.3 232.1 994.8 225.2C995 224.7 995.2 224.3 994.9 223.6S994.1 222.9 993.7 222.7C992.7 222.4 991.8 222.8 991.5 223.7L987.8 233.9 976.5 239.2 985.2 215.2C985.3 214.7 985.5 214.3 985.2 213.6 985 213.3 984.4 212.9 984 212.7 983.1 212.4 982.1 212.8 981.8 213.7L972 240.9 948.8 251.8 950.9 226.3 972.8 207.6C973.3 207 973.6 206.1 973.3 205.4 973.3 205.4 973.1 205.1 973.1 205.1 972.4 204.3 971.3 204.5 970.7 204.8L951.5 221.1 952.6 208.7 961.1 201.6C961.6 201 961.9 200.1 961.6 199.4 961.6 199.4 961.5 199.1 961.5 199.1 960.7 198.3 959.7 198.5 959 198.7L953.3 203.7 954 194.6C953.9 194.3 954 193.8 953.9 193.5 953.6 192.9 953 192.4 952.2 192.4 951.1 192.5 950.2 193 950.3 194L949.6 203.2 944.6 197.5C943.9 196.7 942.8 196.8 942.2 197.1 941.4 197.9 941.5 198.9 941.8 199.6L948.9 208.1 947.8 220.5 931.5 201.3C930.8 200.6 929.7 200.7 929 201 928.5 202.4 928.4 203.6 929.1 204.4Z" fill="rgba(51, 121, 194, 0.58)"></path></g><defs><mask id="SvgjsMask1000"><rect width="1560" height="560" fill="#ffffff"></rect></mask><filter id="SvgjsFilter1001"><feGaussianBlur stdDeviation="1"></feGaussianBlur></filter></defs></svg>