<svg xmlns="http://www.w3.org/2000/svg" version="1.1" xmlns:xlink="http://www.w3.org/1999/xlink" xmlns:svgjs="http://svgjs.dev/svgjs" width="1440" height="560" preserveAspectRatio="none" viewBox="0 0 1440 560"><g mask="url(&quot;#SvgjsMask1006&quot;)" fill="none"><circle r="5.72" cx="406.63000000000005" cy="531.85" filter="url(#SvgjsFilter1007)" fill="rgba(51, 121, 194, 0.58)"></circle><circle r="8.915" cx="537.615" cy="91.215" filter="url(#SvgjsFilter1007)" fill="rgba(51, 121, 194, 0.58)"></circle><circle r="5.225" cx="849.205" cy="120.41499999999999" filter="url(#SvgjsFilter1007)" fill="rgba(51, 121, 194, 0.58)"></circle><circle r="8.83" cx="523.34" cy="360.5" filter="url(#SvgjsFilter1007)" fill="rgba(51, 121, 194, 0.58)"></circle><circle r="5.415" cx="1358.725" cy="9.525" filter="url(#SvgjsFilter1007)" fill="rgba(51, 121, 194, 0.58)"></circle><circle r="6.805" cx="947.4749999999999" cy="179.815" filter="url(#SvgjsFilter1007)" fill="rgba(51, 121, 194, 0.58)"></circle><circle r="8.48" cx="312.05" cy="103.27000000000001" filter="url(#SvgjsFilter1007)" fill="rgba(51, 121, 194, 0.58)"></circle><circle r="9.33" cx="123.27" cy="254" filter="url(#SvgjsFilter1007)" fill="rgba(51, 121, 194, 0.58)"></circle><circle r="5.345" cx="817.945" cy="426.82500000000005" filter="url(#SvgjsFilter1007)" fill="rgba(51, 121, 194, 0.58)"></circle><circle r="4.72" cx="567.88" cy="196.32" filter="url(#SvgjsFilter1007)" fill="rgba(51, 121, 194, 0.58)"></circle><circle r="7.68" cx="562.56" cy="494.91" filter="url(#SvgjsFilter1007)" fill="rgba(51, 121, 194, 0.58)"></circle><circle r="6.91" cx="1359.5700000000002" cy="501.08000000000004" filter="url(#SvgjsFilter1007)" fill="rgba(51, 121, 194, 0.58)"></circle><circle r="7.245" cx="395.035" cy="498.615" filter="url(#SvgjsFilter1007)" fill="rgba(51, 121, 194, 0.58)"></circle><circle r="9.065" cx="327.355" cy="377.285" filter="url(#SvgjsFilter1007)" fill="rgba(51, 121, 194, 0.58)"></circle><circle r="5.475" cx="485.685" cy="396.545" filter="url(#SvgjsFilter1007)" fill="rgba(51, 121, 194, 0.58)"></circle><circle r="7.815" cx="391.145" cy="166.45499999999998" filter="url(#SvgjsFilter1007)" fill="rgba(51, 121, 194, 0.58)"></circle><circle r="8.925" cx="398.115" cy="126.865" filter="url(#SvgjsFilter1007)" fill="rgba(51, 121, 194, 0.58)"></circle><circle r="4.955" cx="1314.905" cy="293.41499999999996" filter="url(#SvgjsFilter1007)" fill="rgba(51, 121, 194, 0.58)"></circle><circle r="8.395" cx="320.445" cy="549.1949999999999" filter="url(#SvgjsFilter1007)" fill="rgba(51, 121, 194, 0.58)"></circle><circle r="8.13" cx="536.92" cy="37.78" filter="url(#SvgjsFilter1007)" fill="rgba(51, 121, 194, 0.58)"></circle><path d="M140.9 223.8L190.9 234.3 200.7 250.2 183.9 246.6C182.2 245.7 180.7 247.1 179.8 248.8 179.8 250.3 181 252.3 182.4 252.3L205.5 257.7 215.7 273 197.3 273.6 179.8 257.4C179.8 257.4 179.2 257.1 179.2 257.1 178 256.5 176.3 257.1 175.2 257.9 174.3 259.6 174.3 261.1 175.7 262.5L188.5 274.1 170.1 274.8 132.1 240.9C132.1 240.9 131.9 240 131.9 240 130.7 239.4 129 240 127.8 240.8 126.4 242.2 126.7 244.5 128.4 245.4L161.2 275.2 138.9 276.7 124.2 263.4C124.2 263.4 124.2 263.4 123.6 263.1 122.5 262.5 121 262.5 119.9 263.4 119 265.1 118.7 267.1 120.1 268.5L130 277.2 113.7 278.2C111.7 277.9 110.8 279.6 110.8 281 110.5 283 111.9 284.5 114.2 284.2L130.2 283.8 121.3 292.9C120.4 294.6 120.1 296.6 121.8 297.4 123.2 298.9 124.6 298.9 126.1 297.5L139.4 282.7 161.5 281.8 131.3 315.3C130.2 316.1 130.5 318.4 131.9 319.9 133 320.5 135 320.8 136.5 319.3L170.3 281.4 188.7 280.7 177.1 293.4C175.6 294.9 176.2 296.6 177.6 298 178.5 299.2 180.7 298.9 181.9 298.1L197.5 280.2 216.2 279 207.7 295.5 185.3 302.7C183.6 303.2 182.7 305 183.2 306.7 183.2 308.1 185.5 309.3 187.2 308.7L203.6 303.5 195.1 320 146.3 335.2C144.6 335.7 143.7 337.5 144.3 339.2 144.8 340.9 146.5 341.8 148.2 341.2L191 327.9 181.1 347.3 162.1 353.4C160.4 353.9 159.5 355.7 160.1 357.4 160.6 359.1 162.4 360 164.1 359.4L176.7 355.8 169.4 370.1C168.5 371.8 169.1 373.5 170.8 374.4 172.5 375.3 174.2 374.7 175.1 373L182.4 358.8 186.3 370.8C186.8 372.5 188.5 373.4 190.3 372.9S192.9 370.6 192.3 368.9L186.5 350.8 196.7 330.9 210.3 373.1C210.9 374.8 212.6 375.7 214.3 375.1 216 374.6 216.9 372.9 216.3 371.1L200.8 322.9 209.3 306.4 214.6 322.7C215.1 324.5 216.8 325.3 218.5 324.8 220.3 324.2 221.1 322.5 220.6 320.8L213.4 298.4 221.6 282.5 231.1 297.4 226.3 320.9C226.3 322.3 227.4 324.3 228.9 324.3 230.9 324.6 232 323.8 232.9 322.1L236.5 305.2 246.1 320.2 235.5 370.2C235.2 372.2 236.1 373.4 237.8 374.2 239.8 374.5 241.2 373.1 241.8 372L251.4 328 263.2 347 259.3 365.9C258.5 367.6 259.9 369 261.6 369.9 263 369.9 265 368.8 265.3 366.8L268 354.5 277.1 367.8C277.6 369.5 279.6 369.8 281.6 368.7 282.8 367.8 283.1 365.8 282.2 364.7L273.5 350.8 286.4 353.8C288.4 354.2 289.8 352.7 289.8 351.3 290.7 349.6 289.9 348.4 288.7 347.9 288.1 347.6 288.1 347.6 287.6 347.3L268.7 343.4 256.9 324.3 300.3 333.7C302 334.5 303.5 333.1 304.3 331.4 304.4 330 303.5 328.8 302.4 328.3 301.8 328 301.8 328 301.8 328L251.5 316.6 242 301.6 258.8 305.2C260.8 305.5 262 304.6 262.9 302.9 262.9 301.5 262.3 299.8 261.2 299.2 260.6 298.9 260.6 298.9 260 298.6L236.6 293.8 227 278.8 244.8 277.8 262.7 293.5C264.1 294.9 266.4 294.7 267.5 293.8 268.4 292.1 268.7 290.1 267 289.2L254.2 277.7 272.3 276.1 310.6 310.9C311.4 312 313.7 311.8 314.9 310.9 315.7 309.2 316 307.2 314.6 305.8L281.7 275.9 303.8 275 318 288.1C319.4 289.5 321.7 289.2 322.6 287.5 323.7 286.7 324 284.7 322.6 283.2L312.7 274.6 329 273.6C330.4 273.6 331.9 272.2 332.2 270.2 331.9 269.3 331.1 268.2 329.9 267.6 329.9 267.6 329.4 267.3 328.8 267L312.5 268 321.1 258C322.3 257.2 322 254.9 321.2 253.7 320.6 253.5 320.6 253.5 320.6 253.5 318.9 252.6 317.2 253.1 316.6 254.3L303.6 268.4 281.2 269.9 311.4 236.5C312.2 234.8 312.2 233.3 310.8 231.9 310.8 231.9 310.3 231.6 310.3 231.6 309.1 231 307.7 231 306.2 232.4L271.8 270.1 254 271.1 265.6 258.3C266.5 256.6 266.8 254.6 265.1 253.7 265.4 253.2 264.8 252.9 264.8 252.9 263.7 252.3 262 252.8 260.8 253.7L245.2 271.5 226.8 272.2 235 256.3 257.4 249.1C259.1 248.5 260.3 246.2 259.8 244.5 258.9 243.4 257.2 242.5 255.8 242.5L239.1 248.3 247.6 231.8 295.8 216.3C297.6 215.7 298.4 214 297.9 212.3 297.3 210.6 295.6 209.7 293.9 210.2L251.7 223.8 261.9 203.9 280 198.1C281.7 197.5 282.6 195.8 282 194.1S279.8 191.5 278.1 192L266 195.9 273.3 181.7C274.2 180 273.6 178.3 271.9 177.4 270.2 176.5 268.5 177.1 267.6 178.8L260.3 193 255.8 180.6C255.6 179.8 255.3 178.9 254.7 178.6 254.2 178.3 252.7 178.3 251.9 178.6 250.1 179.1 249.3 180.9 249.8 182.6L256.2 201 246 220.9 231.8 178.4C231.5 177.5 231.3 176.7 230.7 176.4 230.1 176.1 228.7 176.1 227.8 176.3 226.1 176.9 225.2 178.6 225.8 180.3L241.9 228.9 233.4 245.4 228.4 228.4C228.2 227.6 227 227 226.4 226.7 225.9 226.4 225.3 226.1 224.4 226.4 222.7 226.9 221.6 229.2 222.4 230.4L229.3 253.3 221.1 269.3 211 254 216.4 230.9C216.4 229.5 215.8 227.7 214.7 227.1 214.1 226.9 214.1 226.9 213.8 227.4 212.1 226.5 210.1 227.7 209.8 229.7L206.2 246.5 196.1 231.2 207.5 181C207.5 179.6 206.6 178.4 205.5 177.8 204.9 177.5 204.9 177.5 204.9 177.5 202.9 177.2 201.2 177.8 200.9 179.8L191.3 223.8 179.5 204.7 183.4 185.9C183.7 183.9 182.8 182.7 181.7 182.1 181.7 182.1 181.1 181.9 181.1 181.9 179.1 181.5 177.7 183 177.1 184.1L174.7 197.2 165.9 183.4C165.4 183.1 164.8 182.8 164.2 182.5 163.7 182.2 162.2 182.2 161.4 182.5 159.9 183.9 159 185.6 160.5 187.1L169.2 200.9 156.3 197.9C154.3 197.6 152.9 199 152.3 200.2 152 202.2 153.4 203.6 155.1 204.5L174 208.4 186.1 226.8 142.7 217.5C140.7 217.2 138.7 218.3 138.6 219.8 138.3 221.8 138.9 223.5 140.9 223.8Z" fill="rgba(51, 121, 194, 0.58)"></path><path d="M847.6 147.7L830.8 152.7 833.1 141.1C833.5 139.9 832.6 138.4 831 137.6 829.4 137.7 827.9 138.5 827.5 139.7L824.1 154.9 808.4 159.5 815.6 128.7C815.9 126.7 815.1 125.1 813.5 125.2 811.9 124.5 810.3 125.3 810 127.3L802.2 161.3 788.1 165.8 763 142.6 765.7 129.8 801.4 119.3C801.8 118.9 802.2 118.5 802.5 118.1 802.9 117.7 803.3 116.5 803.2 115.7 802.8 113.7 801.2 113 799.6 113.8L767.1 123.4 770.8 107.8 787.3 102.4C787.7 102.8 788.1 102.4 788.5 102 789.2 101.2 789.6 100 789.1 98.8 788.7 97.6 787.1 96.9 785.5 96.9L772.2 101.4 776.6 81.8C777 80.6 776.1 79.1 774.5 78.3 772.9 78.4 771.4 79.2 771 80.4L766.9 98.8 758.3 90.8C757.1 89.7 755.1 90.1 754.4 91 753.2 92.2 752.9 94.2 754.1 95.3L765.2 105.6 761.4 121.2 738.4 99.9C737.2 98.7 735.6 98.8 734.5 100 733.3 101.3 733.4 102.9 734.6 104L760.1 127.6 757.4 141.2 724.5 151.1 715.1 142.4 722.9 107.6C723.6 106 722.4 104.1 720.8 104.1 719.2 103.4 718 104.6 717.3 106.2L710.2 137.8 698.2 126.8 702 111.2C702.4 110 701.1 108 699.9 107.7S696.8 108.6 696 110.2L693.3 122.2 679 108.9C677.7 107.7 675.8 108.2 674.6 109.4 673.9 110.2 673.5 112.2 674.8 113.4L689.1 126.7 677 130.7C675.8 131.2 674.7 132.4 675.2 134.4 675.6 135.5 677.6 136.6 678.8 136.2L694.1 131.3 706 142.3 675 151.8C673.5 152.7 672.3 153.9 672.8 155.8 673.2 157 675.3 158.1 676.4 157.7L710.9 146.9 720.3 155.6 712.9 189.2 699.5 192.9 674.1 169.3C672.9 168.1 671.3 168.2 670.1 169.4 669 170.7 668.7 172.6 669.9 173.8L692.9 195.1 677.6 200 666.5 189.8C665.3 188.6 663.7 188.7 662.6 189.9 661.4 191.1 661.5 192.7 662.7 193.9L671.3 201.9 653.3 207.3C652.2 207.7 651 209.8 651.5 210.9 652.3 212.5 653.6 213.6 655.1 212.8L673.9 207.3 670.9 220.5C670.9 222.1 671.8 223.6 673 224 674.2 224.3 675.3 223.9 676.1 223.1 676.1 223.1 676.5 222.7 676.5 221.9L680.6 205.1 695.9 200.2 688.8 233.3C688 234.9 688.9 236.5 690.9 236.8 691.7 236.8 692.5 236.7 693.2 235.9 693.6 235.5 694 235.1 694.4 234.7L702.1 198.3 714.7 194.7 739.7 217.9 736.3 232.3 703 242.7C701 243.2 700.3 244.8 701.2 246.3 701.2 247.9 702.8 248.6 704.8 248.2L734.9 238.7 731.6 254.7 716.7 259.2C715.5 259.6 714.8 261.3 714.8 262.8 715.7 264.4 716.9 265.5 718.5 264.7L729.9 261.5 726.1 278.7C725.4 280.3 726.6 281.4 728.3 282.2 729 282.1 730.2 281.7 731 280.9 731 280.9 731.4 280.5 731.7 280L735.8 261.7 746.1 271.2C746.9 271.9 748.9 272.3 750 271 751.2 269.8 750.7 267.8 749.9 267.1L737.1 255.3 740.5 239.3 765.6 262.5C766.8 263.7 768.8 263.2 769.9 262S771 259.2 769.7 258L742.2 232.5 745.3 219.3 778.2 209.3 788.9 219.3 780.7 254.4C780.8 256 781.6 257.6 783.2 258.3 784 258.3 785.2 257.8 786 257 786.3 256.6 786.7 256.2 786.7 255.4L793.8 223.8 805.7 234.9 802.4 250.8C802 252 802.9 253.6 804.5 254.3 806.1 254.3 807.6 253.4 808 252.2L810.7 239.4 823.8 251.6C824.6 252.4 827 252.3 827.8 251.5 828.9 250.2 828.8 247.9 828 247.1L814.8 234.9 827 231.7C827.4 231.3 827.8 230.9 828.1 230.5 828.9 229.6 829.3 228.4 829.2 227.6 828.4 226.1 826.8 225.4 825.2 225.4L809.9 230.3 798 219.3 829 209.8C830.9 209.4 831.7 207.7 831.2 206.6 830.7 204.6 829.1 203.9 827.6 203.9L793.1 214.7 782.4 204.8 789.9 171.3 802.8 167.2 830.3 192.7C831.5 193.9 833.1 193.8 834.3 192.6 835.4 191.4 835.3 189.8 834.1 188.6L809.1 165.4 824.7 160.8 837.5 172.6C838.3 173.4 840.7 173.3 841.8 172.1 843 170.9 842.5 168.9 841.7 168.1L831.4 158.6 849.4 153.2C849.8 152.8 849.8 152.8 850.2 152.4 850.9 151.5 851.3 150.3 851.3 149.5 850.4 148 848.8 147.3 847.6 147.7ZM777.5 200.3L776.4 203.9 773.3 204.8 746.7 212.9 743.5 213.8 741.1 211.5 720.9 192.9 718.5 190.6 719.1 187.4 725.3 160.2 725.9 157 729.4 155.7 755.7 148 759.2 146.7 761.7 148.9 781.8 167.6 784.3 169.9 783.2 173.5 777.5 200.3Z" fill="rgba(51, 121, 194, 0.58)"></path><path d="M1275.7 380.2L1317.9 348.1 1332.4 349.8 1344.9 379.9 1336 391.9 1283.3 398.5C1282.7 398.7 1282.7 398.7 1282.1 399 1281 399.5 1280 400.5 1280.2 402.6 1280.9 404.3 1282 405.3 1284 405.1L1330 399.2 1316.1 417.5 1295.8 420.3C1295.8 420.3 1295.2 420.6 1295.2 420.6 1294.1 421.1 1293.1 422.1 1293.3 424.2 1293.2 425.6 1295.1 426.9 1297.1 426.7L1310.4 425.4 1300 438.7C1299 439.8 1299.2 441.8 1300.5 443.3S1304.2 443.9 1305.7 442.5L1315.6 429.5 1317.5 442.5C1317.6 444.5 1319.6 445.8 1321.6 445.7 1322.8 445.2 1324.3 443.9 1324.2 441.8L1321.3 421.6 1335.8 403.1 1341.7 449.1C1341.9 451.1 1343.8 452.4 1345.2 452.5 1347 451.8 1348.5 450.5 1348.4 448.4L1341.2 396 1350.7 383.8 1382.2 388 1388.1 402.2 1368.2 451.3C1367.5 453 1368.3 454.7 1370 455.4S1373.4 455.4 1374.1 453.7L1391.5 410.5 1400.6 432.4 1393 450.8C1392.3 452.4 1393 454.2 1394.9 455.5S1398.4 455.4 1399.1 453.8L1404 440.6 1410.6 456.6C1411.4 458.4 1413.6 458.8 1415.4 458.1 1417.2 457.4 1417.9 455.7 1417.1 453.9L1410.5 437.9 1423.1 443.1C1425 444.4 1426.7 443.7 1427.2 441.4 1427.9 439.7 1427.2 438 1425.5 437.3L1407.1 429.7 1398 407.8 1440.9 426C1442.6 426.7 1444.9 425.8 1445.6 424.1S1445.6 420.6 1443.9 419.9L1394.6 399.5 1388.7 385.3 1408.6 359.8 1423.4 362 1455.4 404.1C1456.7 405.6 1458.7 405.5 1460.5 404.8 1462 403.4 1461.9 401.4 1461.2 399.6L1432.8 362.9 1455.5 366 1467.8 382.3C1469.2 383.9 1471.2 383.7 1473 383 1473.9 381.9 1474.3 379.6 1473 378.1L1465.2 367.5 1481.9 369.6C1483.4 369.7 1484.9 368.3 1485.6 366.7 1485.4 364.6 1484.1 363.1 1482.7 363L1465.9 361 1476.9 352.3C1477.8 351.2 1478.2 348.9 1477.2 348 1476.4 346.2 1475 346.1 1473.2 346.8 1473.2 346.8 1472.6 347.1 1472.6 347.1L1456.3 359.4 1433.5 356.4 1470.3 328C1471.8 326.7 1472.5 325 1471.2 323.5 1469.8 321.9 1468.4 321.8 1467.2 322.3 1466.6 322.6 1466.6 322.6 1466.6 322.6L1424.1 355.4 1409.4 353.2 1396.9 323.1 1406 311.7 1459 304.2C1460.5 304.3 1461.7 302.4 1461.8 301 1461.7 299 1459.8 297.7 1457.8 297.8L1411.7 303.7 1425.6 285.5 1445.9 282.6C1448 282.5 1449.5 281.2 1448.7 279.4 1448.6 277.4 1446.7 276.1 1445.3 276L1431.6 278.2 1442 264.9C1442.7 263.2 1442.6 261.2 1441.3 259.6 1440.4 259.3 1439 259.2 1437.8 259.7 1437.2 259.9 1437.2 259.9 1436.9 260.8L1426.5 274.1 1424.3 260.4C1424.1 258.4 1422.5 257.7 1421 257.6 1420.4 257.9 1420.4 257.9 1419.8 258.1 1418.7 258.6 1417.7 259.7 1417.6 261.1L1420.5 281.4 1406.6 299.6 1400.7 253.6C1399.9 251.8 1398.6 250.3 1396.8 251 1396 250.7 1396 250.7 1395.4 250.9 1394.2 251.4 1393.5 253.1 1393.4 254.5L1400.8 307.6 1391.7 319 1359.6 315 1353.9 301.4 1374.4 252C1375.1 250.3 1374.1 248 1372.4 247.3S1368.4 247.6 1367.7 249.2L1350.3 292.5 1341.4 271.2 1348.8 252.2C1349.5 250.5 1348.8 248.8 1347.1 248.1 1345.4 247.4 1343.7 248.1 1343 249.8L1337.8 262.3 1331.2 246.4C1330.7 245.2 1328.7 243.9 1327 244.6 1325.2 245.4 1324.2 247.9 1324.7 249.1L1331.3 265 1318.7 259.8C1317.9 259.5 1317.1 259.1 1316.5 259.4 1315.3 259.9 1314.9 260.7 1314.6 261.5 1313.9 263.2 1314.6 265 1316.3 265.7L1334.9 273.9 1343.8 295.2 1300.9 276.9C1300 276.6 1299.4 276.8 1298.3 277.3 1297.7 277.6 1297.1 277.8 1296.7 278.6 1296 280.3 1297 282.7 1298.7 283.4L1347.4 304 1353.1 317.6 1333.8 343 1318.6 341.6 1286.4 298.9C1285.3 297.9 1283.6 297.2 1282.5 297.7 1281.9 298 1281.9 298 1282.1 298.5 1280.3 299.3 1279.9 301.5 1281.2 303.1L1309.6 339.8 1286.3 337 1273.9 320.6C1272.9 319.7 1271.4 319.6 1270.3 320.1 1270.3 320.1 1269.7 320.3 1269.7 320.3 1267.9 321.1 1267.4 323.3 1268.8 324.9L1277.5 335.8 1260.7 333.8C1259.8 333.4 1259.2 333.6 1258.7 333.9 1257.5 334.4 1256.5 335.5 1256.8 336.1 1256.3 338.3 1257.7 339.8 1259.3 340.5L1276.1 342.6 1265.5 350.4C1264 351.8 1263.5 354 1264.9 355.6 1265.9 356.5 1268.2 357 1269.1 355.9L1285.5 343.5 1308.3 346.6 1271.5 375C1270 376.3 1270.1 378.3 1270.9 380.1 1271.9 381 1274.2 381.5 1275.7 380.2ZM1349.9 373.7L1340.4 350.6 1338.9 347.1 1341.1 344.1 1356 324.7 1358.8 321.5 1362.5 322 1386.7 325.2 1390.4 325.8 1391.8 329.3 1401.4 352.4 1402.9 355.9 1400.6 358.9 1385.8 378.2 1383.6 381.2 1379.3 380.9 1355.1 377.8 1351.4 377.2 1349.9 373.7Z" fill="rgba(51, 121, 194, 0.58)"></path><path d="M354.2 424.1L339.5 453.9 311.4 463.1 317.4 434.2 345.3 416.2C345.3 416.2 345.6 415.9 345.6 415.9 346.1 415.3 346 414.1 345.7 413.3 345.1 412.2 343.6 412 342.8 412.9L318.5 428.7 321.4 414.7 332 407.6C332 407.6 332.3 407.3 332.3 407.3 332.8 406.7 332.8 405.5 332.4 404.7 331.8 403.6 330.4 403.4 329.6 404.3L322.2 409 324.5 398.7C324.7 397.8 323.8 396.4 322.9 396.2 321.7 395.7 320.7 396.9 320.4 397.7L318.2 408.1 313.5 400.7C312.9 399.6 311.5 399.4 310.7 400.3 309.6 400.9 309.4 402.4 310.3 403.2L317.4 413.8 314.2 427.6 298.4 403.3C297.7 402.2 296.3 402 295.5 402.9 294.4 403.5 294.2 404.9 295.1 405.7L313.1 433.6 307.2 462.5 284.8 442.6 282.8 409.3C282.8 408.1 281.9 407.3 280.8 407.4 279.6 407.5 278.8 408.4 278.9 409.5L280.6 438.9 269.8 429.3 269.1 416.8C269.1 415.7 268.2 414.9 267 415 265.9 415.1 265.1 415.9 265.2 417.1L265.7 425.5 257.3 418.1C256.7 417 255.3 417.4 254.5 418.3 253.7 419.2 253.7 420.3 254.6 421.1L262.4 428 253.9 428.5C252.8 428.6 252 429.4 252.1 430.6S253 432.5 254.2 432.4L266.6 431.7 277.3 441.3 248 443C246.8 443.1 246 444 246.1 445.1 246.2 446.2 247.1 447 248.2 446.9L281.5 445 303.6 464.7 275.5 474 246.6 459.5C245.5 459 244.4 459.6 243.6 460.5 243.1 461.7 243.7 462.8 244.6 463.6L270.6 476.5 256.9 481 245.6 475.1C244.4 474.6 243.3 475.3 242.5 476.2 242 477.3 242.6 478.4 243.2 479L251.1 482.8 241.1 486.2C240.3 486.5 239.2 487.7 239.8 488.8 240.5 489.9 241.4 490.7 242.4 490.1L252.5 486.7 248.7 494.5C248.2 495.7 248.8 496.8 249.4 497.3 250.2 497.5 251.4 497.5 251.9 496.9 251.9 496.9 252.2 496.6 252.2 496.6L258 485.2 271.7 480.7 258.7 506.7C258.2 507.9 258.8 508.9 259.4 509.5 260.3 509.7 261.4 509.6 262 509.1 262 509.1 262.2 508.8 262.2 508.8L276.9 479 305 469.7 299 498.7 271.2 516.7C270.1 517.4 269.9 518.8 270.8 519.6 271.4 520.7 272.8 520.9 273.6 520L297.9 504.2 295.1 518.2 284.4 525.3C283.3 526 283.1 527.4 284 528.2 284.6 529.3 286.1 529.5 286.9 528.6L294.3 523.9 292 534.2C291.8 535.1 292.7 536.5 293.6 536.7 294.4 536.9 295.3 536.6 295.8 536 296.1 535.7 296.3 535.4 296.3 534.8L298.5 524.5 303.2 531.9C303.8 533 305.3 533.2 306.1 532.3 306.1 532.3 306.3 532 306.3 532 306.9 531.4 306.8 530.3 306.5 529.4L299.3 518.8 302.2 504.8 318.1 529.1C318.7 530.2 320.1 530.4 320.9 529.5 320.9 529.5 321.2 529.2 321.2 529.2 321.7 528.6 321.7 527.4 321.3 526.6L303.3 498.7 309.3 469.8 331.4 489.5 333.3 522.8C333.4 523.9 334.2 524.7 335.4 524.7 336.5 524.6 337.3 523.7 337.2 522.6L335.9 493.5 346.6 503.1 347.3 515.5C347.4 516.6 348.3 517.4 349.4 517.3S351.3 516.4 351.3 515.3L350.8 506.8 358.5 513.7C359.4 514.5 360.6 514.4 361.4 513.5 362.2 512.6 362.1 511.5 361.2 510.7L353.4 503.8 361.9 503.3C362.5 503.3 363 503.2 363.6 502.6S364.1 501.5 364 500.9C364 499.8 363.1 499 362 499.1L349.5 499.8 338.8 490.2 368.1 488.5C368.7 488.5 369.3 488.4 369.8 487.8 370.1 487.5 370.3 486.7 370.3 486.1 370.2 485 369.3 484.2 368.2 484.2L334.9 486.2 312.8 466.5 340.9 457.2 370.6 471.9C371.5 472.2 372.6 472.1 373.1 471.5 373.1 471.5 373.4 471.2 373.4 471.2 373.9 470 373.3 468.9 372.7 468.4L346.7 455.5 360.3 451 371.7 456.8C372.6 457.1 373.7 457 374.2 456.4 374.2 456.4 374.5 456.1 374.5 456.1 375 455 374.4 453.9 373.8 453.3L365.9 449.5 375.9 446.1C376.2 445.8 376.7 445.8 377 445.5 377.5 444.9 377.8 444 377.4 443.2 376.8 442.1 375.9 441.3 374.8 441.9L364.8 445.3 368.6 437.5C369.1 436.3 368.5 435.2 367.9 434.7 366.7 434.2 365.6 434.8 365.1 435.4L359.2 446.8 345.6 451.3 358.6 425.3C359.1 424.1 358.4 423 357.8 422.5 356.1 422.6 354.7 423 354.2 424.1Z" fill="rgba(51, 121, 194, 0.58)"></path><path d="M957.3 163.5L985.8 189.1 986.2 203 976.7 194.4C975.9 193.2 974.4 193.5 973.2 194.3 972.7 195.3 972.6 197 973.5 197.5L986.5 209.7 987.4 223.4 975.3 217 969.9 199.9C969.9 199.9 969.7 199.5 969.7 199.5 969.1 198.7 967.8 198.4 966.7 198.5 965.5 199.3 965 200.2 965.4 201.7L969.3 214 957.2 207.5 945.2 171.3C945.2 171.3 945.3 170.6 945.3 170.6 944.8 169.8 943.5 169.5 942.4 169.6 940.9 170 940.3 171.6 941 172.8L951.2 204.5 936.1 197.1 931.6 182.9C931.6 182.9 931.6 182.9 931.3 182.5 930.8 181.7 929.9 181.2 928.8 181.3 927.6 182.1 926.6 183.2 927 184.7L930.2 194.1 919.2 188.6C918 187.6 916.8 188.4 916.3 189.3 915.3 190.5 915.7 192 917.3 192.7L927.9 198.4 918.6 201C917.4 201.7 916.5 202.9 917.3 204.1 917.6 205.6 918.6 206.2 920 205.8L934.2 201.2 948.9 208.9 916.8 219.3C915.7 219.4 915 221 915.4 222.5 915.9 223.3 917.1 224.2 918.6 223.9L954.8 211.9 967 218.3 954.7 222.3C953.2 222.7 952.9 224 953.3 225.5 953.4 226.5 955 227.2 956.1 227.1L972.9 221.4 985.5 227.5 973.8 235.1 956.5 231.4C955.2 231.1 954 231.9 953.7 233.2 953.2 234.1 954.2 235.7 955.5 236L968.1 238.7 956.4 246.3 919 237.9C917.7 237.6 916.5 238.3 916.2 239.7 915.9 241 916.7 242.2 918 242.5L950.8 249.9 937.1 258.8 922.5 255.6C921.2 255.3 919.9 256.1 919.7 257.4 919.4 258.8 920.2 260 921.5 260.3L931 262.7 920.9 269.2C919.7 270 919.4 271.3 920.2 272.5 921 273.7 922.3 274 923.5 273.2L933.6 266.7 931.6 276C931.3 277.3 932.1 278.5 933.4 278.8S936 278.3 936.3 277L939.3 263.1 953.4 253.9 946.4 286.5C946.1 287.8 946.9 289 948.2 289.3 949.5 289.6 950.7 288.8 951 287.5L959 250.3 970.7 242.8 968 255.4C967.7 256.7 968.5 257.9 969.8 258.2 971.2 258.5 972.4 257.7 972.7 256.4L976.4 239.1 987.7 231.8 988.3 245.2 976.4 258.6C975.8 259.5 975.8 261.2 976.7 261.8 977.9 262.7 979 262.6 980.2 261.8L988.8 252.2 989.4 265.5 963.8 294C962.9 295.2 963 296.3 963.8 297.5 965 298.5 966.4 298.1 967.3 297.6L990 272.6 990.5 289.4 980.9 300.2C979.7 300.9 980.1 302.4 980.9 303.6 981.8 304.2 983.5 304.2 984.5 303L990.8 296.1 991.7 308C991.4 309.4 992.6 310.3 994.4 310.3 995.4 310.2 996.4 309 996.3 308L995.8 295.7 1003 302.5C1004.2 303.4 1005.6 303.1 1006.2 302.1 1007.4 301.4 1007.3 300.3 1006.8 299.5 1006.5 299.1 1006.5 299.1 1006.2 298.7L995.5 289.1 994.9 272.3 1019.6 294.6C1020.4 295.8 1021.9 295.5 1023.1 294.7 1023.6 293.7 1023.5 292.7 1023 291.9 1022.7 291.5 1022.7 291.5 1022.7 291.5L994.4 265.2 993.8 251.9 1003.4 260.6C1004.5 261.5 1005.6 261.4 1006.8 260.6 1007.4 259.7 1007.7 258.4 1007.1 257.6 1006.9 257.1 1006.9 257.1 1006.6 256.7L993.2 244.8 992.6 231.5 1004.5 237.5 1010.2 254.4C1010.6 255.9 1012.2 256.6 1013.3 256.4 1014.5 255.7 1015.4 254.5 1014.7 253.3L1010.7 241 1023 246.7 1034.8 283.7C1034.9 284.7 1036.5 285.4 1037.6 285.3 1038.8 284.5 1039.8 283.3 1039.4 281.9L1029.2 250.2 1043.9 257.8 1048.2 271.6C1048.6 273.1 1050.2 273.8 1051.4 273 1052.4 272.9 1053.4 271.7 1053 270.2L1049.8 260.9 1060.8 266.3C1061.7 266.9 1063.2 266.5 1064.1 265.3 1064.3 264.7 1064.2 263.6 1063.6 262.8 1063.6 262.8 1063.4 262.4 1063.1 262L1052.1 256.5 1061.5 253.3C1062.6 253.2 1063.3 251.6 1063.2 250.5 1062.9 250.1 1062.9 250.1 1062.9 250.1 1062.1 248.9 1060.8 248.6 1060 249.2L1046.2 253.5 1031.1 246.1 1063.2 235.6C1064.5 234.8 1065 233.9 1064.6 232.5 1064.6 232.5 1064.4 232 1064.4 232 1063.8 231.2 1062.9 230.7 1061.5 231.1L1024.9 242.6 1013 236.6 1025.3 232.7C1026.6 231.9 1027.5 230.7 1026.7 229.5 1027.1 229.2 1026.9 228.8 1026.9 228.8 1026.3 228 1025 227.7 1024 227.8L1007.1 233.6 994.9 227.1 1006.2 219.9 1023.5 223.6C1024.8 223.9 1026.4 222.8 1026.7 221.5 1026.6 220.4 1025.8 219.2 1024.9 218.7L1011.9 216.2 1023.6 208.7 1060.7 216.7C1062.1 217 1063.3 216.2 1063.6 214.9 1063.8 213.5 1063.1 212.3 1061.7 212L1029.2 205 1043.3 195.9 1057.3 198.9C1058.6 199.2 1059.8 198.4 1060.1 197.1S1059.6 194.6 1058.3 194.3L1049 192.3 1059.1 185.8C1060.3 185 1060.6 183.7 1059.8 182.4 1059 181.2 1057.7 181 1056.5 181.7L1046.4 188.2 1048.1 178.5C1048.3 177.9 1048.4 177.2 1048.2 176.8 1047.9 176.4 1047 175.9 1046.3 175.7 1045 175.4 1043.8 176.2 1043.5 177.5L1040.7 191.9 1026.6 201 1033.4 168.1C1033.5 167.4 1033.7 166.7 1033.4 166.3 1033.1 165.9 1032.2 165.4 1031.6 165.2 1030.2 165 1029 165.7 1028.7 167.1L1021 204.6 1009.3 212.2 1012.4 199.3C1012.5 198.6 1012 197.8 1011.8 197.4 1011.5 197 1011.2 196.6 1010.6 196.5 1009.3 196.2 1007.6 197.2 1007.8 198.3L1003.6 215.8 992.3 223.1 991.5 209.4 1003.7 196.4C1004.2 195.5 1004.5 194.1 1004 193.3 1003.7 192.9 1003.7 192.9 1003.3 193.2 1002.5 192 1000.8 191.9 999.8 193.1L991.2 202.7 990.3 189 1016.6 160.6C1017.1 159.7 1017 158.6 1016.5 157.8 1016.2 157.4 1016.2 157.4 1016.2 157.4 1015 156.5 1013.7 156.2 1012.8 157.4L990 182.3 989.5 165.5 999.1 154.8C1000 153.6 999.9 152.5 999.4 151.7 999.4 151.7 999.1 151.3 999.1 151.3 998 150.4 996.5 150.7 995.7 151.3L989.2 158.9 988.7 146.6C988.4 146.2 988.2 145.8 987.9 145.4 987.7 145 986.7 144.5 986.1 144.3 984.6 144.7 983.4 145.5 983.8 147L984.2 159.2 977 152.4C975.8 151.5 974.4 151.9 973.6 152.4 972.6 153.6 973 155.1 973.8 156.3L984.5 165.9 985.5 182.4 960.8 160.1C959.6 159.1 957.9 159.1 957.3 160 956.4 161.2 956.1 162.5 957.3 163.5Z" fill="rgba(51, 121, 194, 0.58)"></path><path d="M1116.2 391L1111.8 430.5 1103.4 437.5 1080.6 428.7 1078.6 417.7 1102.3 385.7C1102.5 385.2 1102.5 385.2 1102.6 384.8 1103 383.9 1102.9 382.8 1101.7 381.8 1100.4 381.3 1099.3 381.4 1098.3 382.6L1077.7 410.7 1075 393.7 1084 381.2C1084 381.2 1084.1 380.7 1084.1 380.7 1084.5 379.8 1084.4 378.8 1083.2 377.8 1082.5 377 1080.8 377.4 1079.8 378.5L1073.7 386.5 1071.8 373.9C1071.7 372.9 1070.6 371.9 1069.1 371.8S1066.8 373.5 1066.8 375.1L1068.8 387.2 1060.7 381.5C1059.5 380.5 1057.8 380.9 1056.9 382 1056.5 382.9 1056.5 384.5 1057.6 385.4L1070.1 394.4 1072.7 411.8 1044.6 391.2C1043.4 390.2 1041.7 390.6 1041 391.3 1040.4 392.7 1040.4 394.2 1041.5 395.2L1073.7 418.4 1075.5 429.9 1056.9 444.8 1046.1 440.7 1029.7 404.5C1029.2 403.3 1027.8 402.7 1026.6 403.3S1024.8 405.2 1025.4 406.4L1039.9 438.2 1023.3 431.9 1017.2 418.2C1016.7 417 1015.3 416.4 1013.6 416.8S1011.9 418.7 1012.4 420L1017 429.4 1004.9 424.8C1003.6 424.3 1002.2 425.3 1001.6 426.6 1001.1 427.9 1001.7 429.2 1003 429.7L1015.1 434.4 1005.8 438.5C1004.1 438.9 1003.6 440.2 1004.6 441.6 1005.1 442.9 1006.5 443.4 1007.7 442.8L1021.4 436.8 1038 443.2 1005.9 457C1004.6 457.6 1003.9 459.4 1004.5 460.6S1006.4 462.4 1007.6 461.8L1044.2 445.6 1055 449.7 1058.6 473.8 1049.7 480.6 1010.3 476.2C1008.8 476.2 1007.8 477.3 1007.3 478.7 1007.2 480.2 1008.4 481.2 1009.7 481.7L1044.4 485.3 1031 496 1015.7 494.3C1014.2 494.2 1013.2 495.4 1012.7 496.7 1012.8 497.8 1013.8 499.2 1015.3 499.3L1025.1 500.5 1015.3 508.5C1014.5 509.2 1014.5 510.8 1015 512 1016.2 513 1017.7 513 1018.5 512.3L1028.3 504.3 1027.4 514.7C1027.5 515.8 1028.5 517.2 1029.5 517.1 1030.9 517.6 1031.7 516.9 1032.2 515.5 1032.2 515.5 1032.4 515.1 1032.4 515.1L1034.1 499.8 1047.5 489 1044 523.7C1043.9 525.2 1044.4 526.4 1046 526.5 1047.5 526.6 1048.3 525.8 1048.6 525 1048.8 524.5 1048.8 524.5 1048.8 524.5L1052.9 484.4 1061.7 477.5 1084.6 486.3 1086.1 497.2 1062.7 529.9C1061.9 530.6 1062.3 532.3 1063 533.1 1064.1 534 1065.8 533.7 1066.8 532.5L1087.4 504.4 1090.1 521.4 1081.2 533.9C1080.2 535.1 1080.1 536.6 1081.5 537.1 1082.6 538.1 1084.3 537.7 1085.1 537L1091 528.4 1092.8 541C1093.4 542.2 1094.6 543.2 1096.1 543.3 1096.7 543 1097.5 542.3 1097.8 541.4 1098 540.9 1098 540.9 1097.7 540.3L1095.9 527.7 1104.4 533.6C1105.6 534.6 1106.8 534 1107.6 533.3 1107.8 532.9 1107.8 532.9 1108 532.4 1108.3 531.5 1108.2 530.4 1107.5 529.6L1095 520.7 1092.3 503.7 1120.4 524.3C1121.7 524.8 1123.2 524.9 1123.7 523.6 1124.4 523.3 1124.4 523.3 1124.5 522.8 1124.9 521.9 1124.3 520.7 1123.6 519.9L1090.9 496.5 1089.5 485.7 1108.3 470.3 1118.6 474.2 1134.8 510.9C1135.4 512.1 1137.2 512.8 1138.4 512.2S1140.3 509.9 1139.8 508.7L1125.3 476.8 1141.4 483 1147.9 496.9C1148.5 498.1 1149.8 498.6 1151 498.1 1152.3 497.5 1152.8 496.2 1152.3 494.9L1148.1 485.6 1160.2 490.3C1161.1 490.6 1162.8 490.3 1163.3 488.9 1163.8 487.6 1163 485.7 1162.1 485.4L1150 480.7 1159.3 476.6C1160 476.3 1160.6 476 1160.8 475.6 1161.1 474.7 1160.8 474.1 1160.5 473.4 1160 472.2 1158.7 471.7 1157.4 472.2L1143.3 478.1 1127.2 471.9 1159.3 458C1159.9 457.8 1160.1 457.3 1160.4 456.4 1160.6 456 1160.8 455.5 1160.5 454.9 1159.9 453.7 1158.1 453 1156.9 453.5L1120.5 469.3 1110.2 465.3 1106.4 441.8 1114.9 434.3 1154.9 438.8C1155.9 438.7 1157.2 438.2 1157.5 437.3 1157.7 436.8 1157.7 436.8 1157.2 436.7 1157.7 435.3 1156.7 433.9 1155.2 433.8L1120.6 430.3 1134.2 419 1149.5 420.8C1150.5 420.7 1151.3 420 1151.7 419.1 1151.7 419.1 1151.8 418.6 1151.8 418.6 1152.4 417.3 1151.4 415.9 1149.8 415.8L1139.4 414.9 1149.2 406.8C1149.8 406.5 1150 406.1 1150.2 405.7 1150.5 404.8 1150.4 403.7 1149.9 403.5 1148.9 402.1 1147.4 402 1146.2 402.6L1136.4 410.6 1137.6 400.8C1137.7 399.3 1136.7 397.9 1135.2 397.8 1134.1 397.9 1132.7 398.9 1132.8 400L1131 415.3 1117.6 426 1121.2 391.4C1121.3 389.9 1120.1 388.9 1118.7 388.4 1117.7 388.5 1116.3 389.5 1116.2 391ZM1081.3 434.7L1098.8 441.4 1101.5 442.5 1102 445.2 1104.8 463.3 1105.1 466.5 1102.9 468.2 1088.7 479.7 1086.5 481.4 1083.8 480.4 1066.3 473.7 1063.6 472.6 1063.2 469.9 1060.3 451.8 1059.9 449 1062.2 446.9 1076.5 435.4 1078.7 433.7 1081.3 434.7Z" fill="rgba(51, 121, 194, 0.58)"></path><path d="M90.9 417.5L88.2 428.3 83.1 423.8C82.7 423.3 81.6 423.3 80.8 423.9 80.4 424.7 80.4 425.7 81.2 426.1L87.2 432 85.5 440.5 72.8 428.3C72 427.8 71 427.8 70.5 428.3 69.7 429.2 69.7 430.2 70.5 430.6L84.5 444.1 81.4 457.1 71.5 445.3 69.8 460.6 60 451.5 64.4 432.5C64.7 432.4 64.6 432.1 64.5 431.7 64.3 431.1 63.8 430.6 63.1 430.5 62.4 430.4 61.6 430.9 61.1 431.7L57.3 448.9 51.1 442.8 52.9 434.5C53.2 434.1 53.1 433.8 53 433.5 52.9 433.2 52.4 432.7 51.7 432.6 51 432.4 50.2 433 50 433.7L48.3 440.3 40 432.7C39.5 431.9 38.5 432.2 37.7 432.7 37.2 433.2 37.2 434.2 38.1 435L46 442.6 39.6 444.5C38.7 444.8 38.3 445.9 38.5 446.5 38.8 447.4 39.6 447.9 40.5 447.6L48.8 445.1 55 451.3 38.4 456.2C37.5 456.5 37.1 457.3 37.3 458.2 37.5 458.8 38.4 459.6 39.3 459.3L57.7 453.8 67.5 462.9 52.6 465.7 64.7 474.8 51.8 478.6 37.8 465.4C36.9 464.7 36 465 35.5 465.5 35 466 34.9 467 35.5 467.8L48.4 479.6 40.1 482.1 33.7 476.3C33.1 475.5 32.1 475.5 31.4 476.4 30.9 476.9 30.8 477.9 31.7 478.6L36.4 483.2 25.7 486.4C24.8 486.7 24.4 487.5 24.6 488.4S25.7 489.8 26.6 489.5L37.4 486.3 35.9 492.7C35.6 493.8 36.2 494.6 36.9 494.8 38 495.1 38.8 494.5 38.9 493.5L41 485.2 49.3 482.7 45 499.7C45 500.7 45.6 501.5 46.3 501.6 47.4 502 48.2 501.4 48.3 500.4L52.7 481.7 65.6 477.8 60.5 492.1 74.4 486.2 71.3 499.2 52.9 504.7C52 505 51.6 506.1 51.8 506.7 52.1 507.6 52.9 508 53.8 507.8L70.7 502.7 68.6 511.4 60.3 513.8C59.4 514.1 58.9 514.9 59.2 515.8 59.4 516.4 60.3 517.2 61.2 516.9L67.7 515 65.2 525.7C64.9 526.8 65.4 527.7 66.4 527.7 67.1 527.8 68.1 527.5 68.1 526.5L70.9 515.7 75.9 520.2C76.4 520.7 77.4 520.7 77.9 520.2 78.4 519.8 78.6 519.1 78.5 518.7 78.4 518.4 78.3 518.1 77.9 517.9L71.8 512.1 73.6 503.5 86.3 515.7C87.1 516.2 88.1 516.2 88.6 515.7 89.1 515.2 89.2 514.5 89 513.9 89 513.6 89 513.6 88.6 513.4L74.5 499.9 77.6 486.9 87.5 498.7 89.3 483.4 99 492.6 94.7 511.6C94.6 512.3 94.8 513.2 95.9 513.5 96.6 513.6 97.5 513.1 97.9 512.3L101.8 495.1 108 501.2 106.1 509.5C105.7 510.3 106.2 511.1 107.3 511.4 108.1 511.6 108.9 511 109.3 510.2L110.7 503.8 119 511.3C119.6 512.1 120.5 511.9 121.3 511.3 121.5 510.9 121.7 510.2 121.6 509.9 121.5 509.6 121.4 509.3 121 509L113 501.4 119.5 499.5C120.4 499.2 120.7 498.1 120.5 497.5L120.5 497.5C120.3 496.6 119.5 496.1 118.5 496.4L110.3 498.9 104.1 492.7 120.6 487.8C121.6 487.5 122 486.7 121.7 485.8S120.6 484.4 119.7 484.7L101.3 490.2 91.6 481.1 106.5 478.3 94.4 469.2 107.3 465.4 121.2 478.6C122.1 479.3 123 479 123.6 478.5 124.1 478.1 124.1 477 123.5 476.2L110.9 464.3 118.9 461.9 125.3 467.7C125.9 468.5 126.9 468.5 127.6 467.6 128.2 467.1 128.2 466.1 127.6 465.3L122.6 460.8 133.3 457.6C134.2 457.3 134.7 456.5 134.4 455.6S133.3 454.2 132.4 454.5L121.7 457.7 123.1 451.3C123.3 450.9 123.2 450.6 123.1 450.3 122.9 449.7 122.5 449.5 122.1 449.2 121 448.9 120.2 449.5 120.2 450.5L118 458.8 109.7 461.3 114 444.3C113.9 444 113.8 443.7 113.7 443.4 113.5 442.8 113.1 442.6 112.7 442.4 111.6 442 110.8 442.6 110.8 443.6L106.3 462.3 93.5 466.2 98.6 451.9 84.6 457.8 87.8 444.8 106.2 439.3C107.1 439 107.4 437.9 107.2 437.3 107 436.4 106.2 436 105.2 436.3L88.7 441.2 90.5 432.7 98.7 430.2C99.7 429.9 100.1 429.1 99.8 428.2S98.7 426.8 97.8 427.1L91.4 429 93.8 418.3C94.1 417.9 94 417.6 93.9 417.3 93.8 417 93.3 416.4 92.6 416.3 91.9 416.2 91 416.5 90.9 417.5ZM93.2 457.5L89 469.2 98.9 476.6 86.6 478.9 85.2 491 77.1 481.7 65.8 486.5 70 474.8 60.1 467.5 72.1 465.2 73.8 453 81.6 462.4 93.2 457.5Z" fill="rgba(51, 121, 194, 0.58)"></path><path d="M776.8 469.4L777.6 494.9 771.1 501.6 770.8 493C771.1 492.1 770.2 491.5 769.3 491.3 768.6 491.5 767.7 492.3 767.9 493L768.1 504.8 761.9 511.6 759.3 502.8 765.1 492.3C765.1 492.3 765.2 492 765.2 492 765.3 491.4 764.8 490.6 764.3 490.1 763.4 489.9 762.7 490.1 762.1 490.9L758 498.5 755.5 489.7 767.4 467.2C767.4 467.2 767.8 467 767.8 467 767.9 466.3 767.5 465.6 766.9 465.1 766.1 464.6 765 465 764.8 465.9L754.2 485.5 750.8 474.8 755.5 466C755.5 466 755.5 466 755.6 465.7 755.7 465.1 755.6 464.4 755 463.9 754.1 463.7 753.1 463.8 752.6 464.7L749.5 470.5 747.1 462.7C747 461.7 746.1 461.5 745.4 461.7 744.4 461.8 743.8 462.6 744.2 463.7L746.4 471.4 740.9 468.2C739.9 467.9 738.9 468 738.7 469 738.2 469.8 738.3 470.5 739.2 471.1L748 475.8 751 486.4 731.2 475.7C730.6 475.3 729.6 475.7 729 476.5 728.9 477.2 729 478.2 729.8 478.7L752.3 490.6 754.9 499.4 747.3 495.3C746.4 494.8 745.7 495.3 745.1 496.1 744.7 496.7 745.1 497.8 745.6 498.2L756.2 503.7 759 512.6 750 510.4 743.8 500.4C743.3 499.6 742.4 499.4 741.6 499.9 740.9 500.1 740.6 501.3 741.1 502.1L745.6 509.4 736.6 507.3 723.3 485.4C722.8 484.6 721.9 484.4 721.1 484.9 720.4 485.3 720.2 486.3 720.6 487.1L732.2 506.2 721.6 503.7 716.4 495.3C715.9 494.5 715 494.3 714.2 494.7 713.4 495.2 713.2 496.2 713.7 496.9L716.9 502.6 709.2 500.8C708.2 500.6 707.5 501 707.2 502 707 502.9 707.5 503.7 708.4 503.9L716.2 505.7 710.8 509.1C710.1 509.5 709.8 510.5 710.3 511.2S711.7 512.2 712.5 511.8L720.6 506.8 731.5 509.3 712.6 521C711.8 521.5 711.6 522.4 712.1 523.2 712.6 523.9 713.5 524.2 714.3 523.7L735.8 510.4 744.9 512.5 737.5 517C736.8 517.5 736.6 518.4 737 519.2 737.5 520 738.4 520.2 739.2 519.7L749.2 513.5 757.9 515.6 751.8 522 739.9 522.5C739.2 522.7 738.3 523.5 738.5 524.2 738.6 525.2 739.1 525.6 740.1 525.8L748.7 525.6 742.6 532 717 532.9C716 533 715.6 533.5 715.3 534.5 715.4 535.5 716.3 536 716.9 536.2L739.4 535.6 731.6 543.6 722 543.9C721 543.7 720.5 544.6 720.3 545.5 720.5 546.2 721.2 547 722.3 547L728.5 546.8 723.2 552.8C722.4 553.2 722.5 554.2 723.3 555.1 723.8 555.5 724.8 555.5 725.3 554.9L731 549 731.1 555.6C731.1 556.6 732 557.1 732.7 557 733.6 557.2 734.1 556.7 734.2 556 734.3 555.7 734.3 555.7 734.4 555.4L734 545.8 741.9 537.8 742.5 560C742.3 560.9 743.2 561.4 744.1 561.7 744.8 561.5 745.3 560.9 745.4 560.3 745.5 560 745.5 560 745.5 560L745 534.2 751.1 527.8 751.4 536.4C751.5 537.4 752 537.9 753 538.1 753.7 537.9 754.4 537.5 754.6 536.8 754.6 536.5 754.6 536.5 754.7 536.2L754.3 524.3 760.4 517.8 763 526.3 757.5 536.9C757 537.7 757.4 538.8 757.9 539.3 758.9 539.5 759.9 539.4 760.1 538.5L764.2 530.9 767.1 539.5 754.8 562.2C754.4 562.8 754.8 563.8 755.3 564.3 756.2 564.5 757.3 564.4 757.8 563.6L768.3 544 771.4 554.6 766.8 563.1C766.2 563.9 766.7 565 767.6 565.2 768.1 565.7 769.1 565.6 769.7 564.7L772.7 558.9 775.1 566.7C775.3 567.4 776.2 567.9 777.2 567.8 777.6 567.6 778 567 778.2 566.4 778.2 566.4 778.2 566.1 778.3 565.8L775.9 558 781.7 561C782.3 561.5 783.4 561.1 783.8 560.5 783.9 560.2 783.9 560.2 783.9 560.2 784.1 559.3 783.6 558.5 783 558.4L774.6 553.7 771.2 543.1 791 553.7C792 553.9 792.7 553.7 793.2 552.9 793.2 552.9 793.3 552.6 793.3 552.6 793.4 551.9 793.3 551.2 792.4 550.7L770 538.5 767.4 530 774.9 534.1C775.9 534.3 776.9 534.2 777.1 533.3 777.4 533.4 777.5 533 777.5 533 777.6 532.4 777.2 531.7 776.6 531.2L766.1 525.7 763.5 516.9 772.3 519 778.5 529C778.9 529.8 780.2 530.1 780.9 529.6 781.4 529 781.6 528.1 781.5 527.4L776.6 520 785.7 522.2 799 543.7C799.5 544.5 800.4 544.7 801.2 544.2 801.9 543.8 802.1 542.8 801.7 542.1L790 523.2 800.9 525.8 805.9 533.8C806.4 534.6 807.3 534.8 808.1 534.4S809.1 533 808.6 532.2L805.3 526.8 813.1 528.6C814 528.9 814.8 528.4 815 527.4 815.2 526.5 814.7 525.7 813.8 525.5L806 523.7 811.5 520C811.9 519.8 812.2 519.6 812.3 519.2 812.4 518.9 812.2 518.2 812 517.9 811.5 517.1 810.6 516.9 809.8 517.3L801.7 522.6 790.8 520.1 809.7 508.1C810.1 507.9 810.5 507.6 810.5 507.3 810.6 507 810.4 506.3 810.2 505.9 809.7 505.2 808.8 504.9 808 505.4L786.4 519 777.4 516.9 785 512.5C785.4 512.2 785.5 511.6 785.6 511.3 785.7 511 785.7 510.7 785.5 510.3 785 509.5 783.8 509.2 783.3 509.8L773 515.9 764.3 513.8 770.5 507.1 782.4 506.9C783.1 506.7 783.8 506.3 784 505.6 784 505.3 784 505.3 783.7 505.3 784 504.3 783.2 503.5 782.2 503.6L773.5 503.8 779.7 497.1 805.5 496.6C806.2 496.4 806.7 495.9 806.8 495.3 806.9 494.9 806.9 494.9 806.9 494.9 806.8 493.9 806.3 493.2 805.3 493.3L782.8 493.9 790.6 485.8 800.2 485.5C801.3 485.4 801.7 484.8 801.9 484.2 801.9 484.2 801.9 483.9 801.9 483.9 801.8 482.9 801 482.4 800.4 482.2L793.7 482.6 799.4 476.7C799.4 476.4 799.5 476.1 799.6 475.8 799.7 475.5 799.5 474.8 799.2 474.4 798.4 473.9 797.5 473.6 796.9 474.5L791.3 480.4 791.2 473.8C791.1 472.8 790.2 472.3 789.6 472.1 788.6 472.2 788.1 473.1 787.8 474L788.2 483.6 780.7 491.7 780 469.5C779.9 468.5 779.1 467.7 778.4 467.8 777.4 467.9 776.7 468.4 776.8 469.4Z" fill="rgba(51, 121, 194, 0.58)"></path><path d="M628.6 310L630 336.4 625.3 342 609.3 338.7 606.8 331.7 618.9 308C619 307.7 619 307.7 619 307.4 619.2 306.8 619 306.1 618.1 305.6 617.2 305.4 616.5 305.5 616 306.4L605.5 327.1 601.8 316.3 606.4 307.1C606.4 307.1 606.4 306.7 606.4 306.7 606.5 306.1 606.4 305.4 605.5 304.9 604.9 304.5 603.9 304.9 603.4 305.8L600.2 311.7 597.6 303.6C597.4 302.9 596.5 302.4 595.5 302.5S594.3 303.9 594.4 304.9L597 312.6 591.1 309.8C590.2 309.3 589.1 309.7 588.6 310.6 588.5 311.2 588.6 312.2 589.5 312.7L598.7 317.2 602.3 328.4 581.6 317.9C580.7 317.4 579.6 317.9 579.2 318.4 579 319.4 579.1 320.4 580 320.9L603.7 332.6 606.1 340 595.5 351.9 588 350.3 573.2 328.3C572.7 327.6 571.8 327.4 571 327.9S570.1 329.3 570.6 330.1L583.6 349.4 572 347 566.5 338.7C566 337.9 565.1 337.7 564 338.2S563 339.6 563.5 340.4L567.6 346.1 559.1 344.4C558.2 344.2 557.4 345 557.2 345.9 557 346.9 557.5 347.6 558.4 347.8L566.9 349.6 561.2 353.3C560.1 353.7 559.9 354.7 560.7 355.5 561.2 356.2 562.2 356.4 562.9 355.9L571.3 350.5 582.9 352.9 563.3 365.5C562.5 366 562.2 367.2 562.7 368S564.2 368.9 564.9 368.4L587.2 353.8 594.8 355.3 599.8 370.7 594.7 376.2 568.3 377.6C567.3 377.7 566.8 378.6 566.6 379.5 566.7 380.6 567.6 381.1 568.5 381.3L591.7 379.8 584 388.4 573.8 388.9C572.8 389 572.3 389.9 572.1 390.8 572.3 391.5 573.1 392.3 574.1 392.2L580.7 391.9 575.1 398.3C574.7 398.9 574.8 399.9 575.3 400.6 576.2 401.1 577.2 401 577.6 400.5L583.2 394.1 583.7 401.1C583.9 401.7 584.7 402.6 585.4 402.4 586.3 402.6 586.8 402 587 401.1 587 401.1 587 400.8 587 400.8L586.5 390.5 594.2 382 595.6 405.1C595.7 406.1 596.2 406.9 597.2 406.8 598.2 406.7 598.7 406.1 598.8 405.5 598.9 405.2 598.9 405.2 598.9 405.2L597.2 378.4 602.3 372.9 618.2 376.2 620.4 383.1 608.6 407.2C608.1 407.7 608.6 408.8 609.1 409.2 610 409.7 611.1 409.3 611.6 408.4L622.1 387.7 625.7 398.6 621.2 407.8C620.7 408.7 620.8 409.7 621.7 409.9 622.6 410.4 623.7 410 624.1 409.4L627 403.1 629.6 411.2C630.1 411.9 631 412.5 632 412.3 632.4 412.1 632.8 411.5 633 410.9 633 410.6 633 410.6 632.8 410.2L630.2 402.2 636.4 405.1C637.3 405.6 638.1 405.1 638.5 404.5 638.6 404.2 638.6 404.2 638.6 403.9 638.8 403.3 638.6 402.6 638 402.1L628.8 397.6 625.2 386.7 645.9 397.2C646.8 397.4 647.9 397.3 648 396.4 648.4 396.1 648.4 396.1 648.5 395.8 648.6 395.2 648.1 394.4 647.6 394L623.5 382.2 621.4 375.2 632.1 363 639.3 364.5 653.9 386.8C654.4 387.6 655.7 387.8 656.4 387.3S657.5 385.6 657 384.8L644 365.5 655.2 367.8 661 376.2C661.5 376.9 662.5 377.1 663.2 376.6 664 376.1 664.2 375.2 663.7 374.4L660 368.8 668.4 370.5C669 370.6 670.1 370.2 670.3 369.3 670.5 368.3 669.8 367.2 669.1 367.1L660.7 365.3 666.3 361.6C666.7 361.3 667.1 361.1 667.2 360.8 667.3 360.1 667 359.8 666.8 359.4 666.3 358.6 665.3 358.4 664.6 358.9L656 364.3 644.7 362 664.3 349.4C664.7 349.1 664.7 348.8 664.8 348.2 664.9 347.9 665 347.6 664.7 347.2 664.2 346.4 663 346.2 662.2 346.7L640 361 632.8 359.6 627.7 344.5 632.5 338.6 659.3 337.3C660 337.1 660.7 336.6 660.8 335.9 660.9 335.6 660.9 335.6 660.6 335.6 660.8 334.6 660 333.8 659 333.9L635.8 335.4 643.5 326.5 653.7 326C654.4 325.8 654.9 325.2 655 324.6 655 324.6 655.1 324.3 655.1 324.3 655.3 323.4 654.5 322.5 653.5 322.7L646.5 323.2 652 316.8C652.4 316.6 652.5 316.2 652.6 315.9 652.7 315.3 652.5 314.6 652.2 314.6 651.4 313.7 650.4 313.9 649.6 314.3L644.1 320.7 643.8 314.1C643.7 313.1 642.8 312.3 641.8 312.4 641.2 312.6 640.3 313.4 640.5 314.1L641 324.3 633.4 332.9 631.9 309.7C631.8 308.7 630.9 308.2 630 308 629.3 308.2 628.5 309 628.6 310ZM610.5 342.5L622.7 345.1 624.6 345.4 625.2 347.2 629 358.8 629.6 360.9 628.3 362.2 620.2 371.3 618.9 372.7 617.1 372.3 604.8 369.8 603 369.4 602.3 367.7 598.5 356.1 597.9 354.3 599.2 352.6 607.3 343.5 608.6 342.2 610.5 342.5Z" fill="rgba(51, 121, 194, 0.58)"></path></g><defs><mask id="SvgjsMask1006"><rect width="1440" height="560" fill="#ffffff"></rect></mask><filter id="SvgjsFilter1007"><feGaussianBlur stdDeviation="1"></feGaussianBlur></filter></defs></svg>